<svg width="371" height="297" viewBox="0 0 371 297" fill="none" xmlns="http://www.w3.org/2000/svg">
<path fill-rule="evenodd" clip-rule="evenodd" d="M205.562 -48.2307C268.828 -51.0237 338.175 -84.9986 386.078 -43.6211C440.253 3.17332 464.114 86.4095 439.003 153.411C415.91 215.025 337.438 222.283 276.799 247.955C222.234 271.055 168.889 312.182 113.462 291.23C54.1008 268.792 19.6114 207.612 6.15145 145.651C-7.11782 84.5689 -0.836784 15.0755 44.0014 -28.5196C84.9053 -68.2896 148.537 -45.7133 205.562 -48.2307Z" fill="url(#paint0_linear_4095_6138)"/>
<path d="M203.547 216.113L114.721 165.065C112.232 163.622 112.518 161.102 115.424 159.43L175.909 124.688C178.808 123.022 183.201 122.83 185.715 124.279L274.522 175.327C277.011 176.77 276.724 179.297 273.819 180.962L213.334 215.705C210.435 217.377 206.079 217.556 203.547 216.113Z" fill="#173D7A"/>
<path d="M299.41 76.6863L207 23.5698C206.541 23.2851 206.024 23.1033 205.487 23.037C204.95 22.9707 204.405 23.0215 203.889 23.1858L203.721 23.2477H203.678L200.336 24.5235L203.335 25.985C203.335 26.0407 203.304 26.0903 203.292 26.146L188.222 94.3609C187.469 97.7794 188.981 101.792 191.594 103.266L281.814 155.101L281.49 158.91L285.143 157.498C286.387 156.928 287.352 155.64 287.756 153.782L302.813 85.5669C303.554 82.1732 302.048 78.185 299.41 76.6863Z" fill="#173D7A"/>
<path d="M299.41 76.6863L207 23.5698C206.541 23.2851 206.024 23.1033 205.487 23.037C204.95 22.9707 204.405 23.0215 203.889 23.1858L203.721 23.2477H203.678L200.336 24.5235L203.335 25.985C203.335 26.0407 203.304 26.0903 203.292 26.146L193.355 71.1127L238.583 106.183L302.353 80.3587C301.817 78.8388 300.78 77.5443 299.41 76.6863Z" fill="#396CAA"/>
<path d="M295.944 87.1711L302.981 84.1861C303.112 81.4798 301.986 78.6745 300.132 77.1758L288.994 81.839L295.944 87.1711Z" fill="#274F89"/>
<path d="M278.255 158.544L185.839 105.434C183.226 103.929 181.714 99.9405 182.467 96.5282L197.524 28.3196C198.277 24.9011 201.008 23.3652 203.622 24.8577L296.056 77.9743C298.67 79.473 300.175 83.4612 299.422 86.8735L284.371 155.088C283.612 158.501 280.887 160.049 278.255 158.544Z" fill="#D4ECFF"/>
<path d="M296.921 77.6524L204.511 24.5359C203.972 24.1937 203.352 23.9986 202.713 23.9704C202.074 23.9421 201.439 24.0816 200.871 24.3748C201.816 24.1834 202.799 24.3559 203.622 24.8577L296.056 77.9743C298.67 79.473 300.175 83.4612 299.422 86.8735L284.371 155.088C284.247 155.835 283.959 156.546 283.529 157.171C283.099 157.796 282.537 158.32 281.882 158.705C283.444 158.365 284.744 156.953 285.23 154.76L300.287 86.5516C301.065 83.1393 299.559 79.1635 296.921 77.6524Z" fill="white"/>
<path d="M276.264 153.479L189.336 103.545C186.946 102.17 185.565 98.5227 186.225 95.3953L200.031 32.977C200.716 29.8806 203.217 28.4376 205.631 29.8124L292.566 79.7396C294.955 81.1145 296.336 84.7621 295.677 87.8895L281.845 150.308C281.161 153.429 278.659 154.847 276.264 153.479Z" fill="white"/>
<path d="M276.264 153.479L189.336 103.545C186.946 102.17 185.565 98.5227 186.225 95.3953L200.031 32.977C200.716 29.8806 203.217 28.4376 205.631 29.8124L292.566 79.7396C294.955 81.1145 296.336 84.7621 295.677 87.8895L281.845 150.308C281.161 153.429 278.659 154.847 276.264 153.479Z" fill="#173D7A"/>
<path d="M277.01 153.162L190.095 103.235C187.699 101.86 186.318 98.2127 186.984 95.0915L200.784 32.6732C200.893 32.0023 201.144 31.3621 201.521 30.7952C201.897 30.2282 202.391 29.7475 202.968 29.3848C201.593 29.7378 200.479 31.0259 200.025 32.9766L186.25 95.3949C185.565 98.4914 186.946 102.17 189.361 103.545L276.264 153.479C276.767 153.799 277.347 153.979 277.943 153.999C278.54 154.02 279.131 153.881 279.655 153.596C279.207 153.704 278.743 153.722 278.288 153.647C277.834 153.573 277.399 153.408 277.01 153.162Z" fill="#5793CE"/>
<path d="M279.543 160.86L266.912 159.201L185.354 112.333C182.734 110.828 178.167 111.014 175.149 112.754L117.359 145.948L109.718 144.945V149.28C109.669 150.277 110.241 151.237 111.473 151.943L203.902 205.059C206.521 206.564 211.088 206.372 214.106 204.638L277.048 168.465C278.746 167.487 279.593 166.23 279.537 165.053L279.543 160.86Z" fill="#173D7A"/>
<path d="M218.262 131.246L212.469 127.914H148.762L117.359 145.948L109.718 144.945V149.28C109.669 150.277 110.241 151.237 111.473 151.943L203.902 205.059C205.528 205.88 207.357 206.222 209.172 206.044L218.262 131.246Z" fill="#396CAA"/>
<path d="M113.109 145.39L109.718 144.945V149.28C109.669 150.277 110.241 151.237 111.473 151.943L113.103 152.884L113.109 145.39Z" fill="#5793CE"/>
<path d="M204.835 205.499C207.688 206.42 210.786 206.228 213.502 204.96V195.312H204.835V205.499Z" fill="#274F89"/>
<path d="M203.908 200.73L111.504 147.62C108.891 146.115 109.214 143.489 112.238 141.755L175.174 105.601C178.192 103.867 182.759 103.675 185.379 105.18L277.807 158.296C280.42 159.795 280.097 162.421 277.073 164.155L214.112 200.309C211.094 202.049 206.527 202.235 203.908 200.73Z" fill="#D4ECFF"/>
<path d="M277.048 162.582L214.112 198.736C211.094 200.47 206.527 200.662 203.908 199.157L111.504 146.047C110.764 145.673 110.187 145.043 109.88 144.276C109.47 145.514 109.992 146.753 111.504 147.626L203.908 200.73C206.527 202.235 211.094 202.049 214.112 200.309L277.048 164.155C279.082 162.991 279.885 161.424 279.406 160.062C278.956 161.16 278.117 162.057 277.048 162.582Z" fill="white"/>
<path d="M150.79 130.032L146.609 127.629C146.273 127.437 146.316 127.097 146.702 126.88L151.636 124.037C151.836 123.928 152.059 123.866 152.287 123.857C152.515 123.849 152.742 123.893 152.949 123.988L157.13 126.391C157.466 126.583 157.423 126.917 157.037 127.14L152.103 129.976C151.903 130.086 151.681 130.149 151.453 130.158C151.225 130.168 150.998 130.125 150.79 130.032Z" fill="#5793CE"/>
<path d="M157.249 133.741L153.067 131.339C152.731 131.147 152.775 130.812 153.161 130.589L158.095 127.753C158.294 127.643 158.517 127.58 158.745 127.571C158.972 127.561 159.199 127.604 159.408 127.697L163.589 130.1C163.925 130.292 163.881 130.633 163.496 130.855L158.561 133.692C158.362 133.803 158.139 133.865 157.911 133.874C157.683 133.883 157.456 133.837 157.249 133.741Z" fill="#5793CE"/>
<path d="M163.707 137.457L159.526 135.054C159.19 134.856 159.233 134.522 159.619 134.299L164.553 131.462C164.753 131.352 164.975 131.29 165.203 131.28C165.431 131.27 165.658 131.314 165.866 131.407L170.047 133.809C170.383 134.008 170.34 134.342 169.954 134.565L165.014 137.377C164.817 137.49 164.597 137.556 164.37 137.57C164.143 137.584 163.916 137.545 163.707 137.457Z" fill="#5793CE"/>
<path d="M172.642 134.392L168.461 131.989C168.125 131.797 168.162 131.457 168.554 131.234L172.698 128.856C172.896 128.745 173.118 128.682 173.345 128.673C173.572 128.663 173.798 128.707 174.005 128.8L178.186 131.203C178.522 131.395 178.484 131.735 178.092 131.958L173.949 134.336C173.75 134.447 173.529 134.509 173.302 134.519C173.075 134.529 172.849 134.485 172.642 134.392Z" fill="#5793CE"/>
<path d="M179.1 138.102L174.919 135.699C174.583 135.507 174.621 135.166 175.013 134.943L179.156 132.565C179.355 132.454 179.576 132.392 179.803 132.382C180.03 132.373 180.256 132.416 180.463 132.509L184.644 134.912C184.98 135.104 184.943 135.445 184.551 135.668L180.407 138.046C180.209 138.156 179.987 138.219 179.76 138.229C179.533 138.238 179.307 138.195 179.1 138.102Z" fill="#5793CE"/>
<path d="M185.546 141.811L181.365 139.408C181.029 139.216 181.067 138.882 181.459 138.659L185.602 136.274C185.801 136.163 186.023 136.101 186.25 136.092C186.477 136.084 186.703 136.129 186.909 136.225L191.09 138.628C191.426 138.82 191.389 139.154 190.997 139.377L186.853 141.761C186.655 141.872 186.433 141.935 186.206 141.943C185.979 141.952 185.753 141.906 185.546 141.811Z" fill="#5793CE"/>
<path d="M192.017 145.527L187.836 143.124C187.5 142.926 187.538 142.591 187.93 142.368L192.073 139.99C192.272 139.88 192.493 139.817 192.72 139.807C192.947 139.798 193.173 139.841 193.38 139.935L197.561 142.337C197.897 142.529 197.86 142.864 197.468 143.087L193.324 145.471C193.126 145.582 192.904 145.644 192.677 145.654C192.45 145.664 192.224 145.62 192.017 145.527Z" fill="#5793CE"/>
<path d="M198.476 149.236L194.295 146.833C193.959 146.641 193.996 146.301 194.388 146.078L198.532 143.7C198.73 143.589 198.952 143.527 199.179 143.517C199.406 143.507 199.632 143.551 199.839 143.644L204.02 146.047C204.356 146.239 204.318 146.579 203.926 146.802L199.783 149.18C199.584 149.291 199.363 149.354 199.136 149.363C198.909 149.373 198.683 149.329 198.476 149.236Z" fill="#5793CE"/>
<path d="M204.934 152.946L200.753 150.543C200.417 150.351 200.455 150.016 200.847 149.794L204.99 147.409C205.189 147.299 205.41 147.236 205.637 147.226C205.864 147.217 206.09 147.26 206.297 147.354L210.478 149.756C210.814 149.955 210.777 150.289 210.385 150.512L206.241 152.896C206.042 153.006 205.821 153.067 205.594 153.076C205.367 153.085 205.141 153.04 204.934 152.946Z" fill="#5793CE"/>
<path d="M211.393 156.661L207.212 154.252C206.876 154.06 206.913 153.726 207.305 153.503L211.449 151.119C211.648 151.009 211.869 150.948 212.096 150.939C212.323 150.93 212.549 150.975 212.756 151.069L216.937 153.472C217.273 153.664 217.235 153.998 216.843 154.221L212.7 156.606C212.501 156.716 212.28 156.779 212.053 156.789C211.826 156.798 211.6 156.755 211.393 156.661Z" fill="#5793CE"/>
<path d="M217.851 160.371L213.67 157.968C213.334 157.776 213.372 157.436 213.764 157.213L217.907 154.835C218.106 154.724 218.327 154.661 218.554 154.652C218.781 154.642 219.007 154.686 219.214 154.779L223.395 157.182C223.731 157.374 223.694 157.714 223.302 157.937L219.146 160.29C218.951 160.403 218.733 160.469 218.508 160.483C218.283 160.497 218.059 160.459 217.851 160.371Z" fill="#5793CE"/>
<path d="M224.31 164.08L220.129 161.678C219.793 161.486 219.83 161.145 220.222 160.928L224.366 158.544C224.564 158.434 224.785 158.371 225.012 158.361C225.239 158.352 225.465 158.395 225.672 158.488L229.854 160.891C230.19 161.083 230.152 161.424 229.76 161.647L225.616 164.006C225.42 164.12 225.199 164.186 224.972 164.198C224.745 164.211 224.518 164.171 224.31 164.08Z" fill="#5793CE"/>
<path d="M230.768 167.79L226.612 165.387C226.276 165.195 226.313 164.861 226.705 164.638L230.849 162.254C231.047 162.143 231.269 162.08 231.496 162.072C231.724 162.063 231.95 162.109 232.156 162.204L236.337 164.607C236.673 164.799 236.636 165.134 236.244 165.356L232.075 167.722C231.878 167.836 231.657 167.902 231.43 167.914C231.203 167.925 230.976 167.883 230.768 167.79Z" fill="#5793CE"/>
<path d="M182.155 132.633L177.974 130.23C177.638 130.038 177.682 129.697 178.068 129.474L182.211 127.096C182.411 126.986 182.633 126.923 182.861 126.913C183.089 126.904 183.316 126.947 183.524 127.041L187.706 129.443C188.042 129.635 187.998 129.976 187.612 130.199L183.468 132.577C183.269 132.687 183.046 132.75 182.818 132.759C182.591 132.769 182.364 132.726 182.155 132.633Z" fill="#5793CE"/>
<path d="M175.591 128.868L171.41 126.465C171.074 126.273 171.111 125.932 171.503 125.709L175.647 123.331C175.845 123.221 176.067 123.158 176.294 123.148C176.521 123.139 176.747 123.182 176.954 123.275L181.135 125.678C181.471 125.87 181.434 126.211 181.042 126.434L176.898 128.812C176.7 128.922 176.478 128.985 176.251 128.995C176.024 129.004 175.798 128.961 175.591 128.868Z" fill="#5793CE"/>
<path d="M169.033 125.096L160.036 119.919C159.7 119.727 159.744 119.386 160.129 119.163L164.273 116.785C164.472 116.675 164.693 116.612 164.92 116.602C165.147 116.593 165.373 116.636 165.58 116.73L174.583 121.894C174.919 122.086 174.876 122.421 174.49 122.644L170.346 125.028C170.148 125.141 169.926 125.205 169.698 125.217C169.47 125.229 169.242 125.188 169.033 125.096Z" fill="#5793CE"/>
<path d="M173.625 120.507L166.314 116.321C165.978 116.129 166.022 115.795 166.407 115.572L170.551 113.187C170.751 113.076 170.973 113.014 171.202 113.005C171.43 112.997 171.657 113.042 171.864 113.138L179.175 117.337C179.511 117.529 179.467 117.863 179.082 118.086L174.969 120.452C174.766 120.567 174.538 120.632 174.304 120.642C174.07 120.651 173.837 120.605 173.625 120.507Z" fill="#5793CE"/>
<path d="M188.614 136.343L184.433 133.94C184.097 133.748 184.14 133.414 184.526 133.191L188.67 130.806C188.869 130.696 189.092 130.633 189.32 130.623C189.548 130.614 189.775 130.657 189.983 130.751L194.164 133.16C194.5 133.352 194.456 133.686 194.071 133.909L189.902 136.293C189.706 136.4 189.487 136.46 189.264 136.469C189.04 136.478 188.818 136.434 188.614 136.343Z" fill="#5793CE"/>
<path d="M195.072 140.058L190.891 137.655C190.555 137.457 190.599 137.123 190.985 136.9L195.128 134.522C195.328 134.411 195.55 134.348 195.778 134.339C196.006 134.329 196.233 134.373 196.441 134.466L200.623 136.869C200.959 137.061 200.915 137.395 200.529 137.618L196.385 140.002C196.186 140.113 195.963 140.175 195.735 140.185C195.508 140.194 195.281 140.151 195.072 140.058Z" fill="#5793CE"/>
<path d="M201.531 143.768L197.368 141.365C197.032 141.173 197.076 140.833 197.462 140.61L201.606 138.232C201.805 138.121 202.027 138.058 202.255 138.049C202.483 138.039 202.71 138.083 202.918 138.176L207.1 140.579C207.436 140.771 207.392 141.111 207.006 141.334L202.862 143.712C202.661 143.825 202.435 143.89 202.203 143.899C201.972 143.909 201.742 143.864 201.531 143.768Z" fill="#5793CE"/>
<path d="M207.989 147.478L203.808 145.075C203.472 144.883 203.516 144.548 203.902 144.325L208.045 141.941C208.245 141.83 208.467 141.768 208.695 141.758C208.923 141.748 209.15 141.792 209.358 141.885L213.539 144.288C213.875 144.486 213.832 144.821 213.446 145.044L209.302 147.428C209.102 147.536 208.879 147.597 208.652 147.606C208.424 147.614 208.197 147.57 207.989 147.478Z" fill="#5793CE"/>
<path d="M214.448 151.193L210.267 148.784C209.931 148.592 209.974 148.258 210.36 148.035L214.504 145.651C214.704 145.541 214.926 145.479 215.154 145.471C215.382 145.462 215.609 145.507 215.817 145.601L219.998 148.004C220.334 148.196 220.29 148.53 219.905 148.753L215.761 151.137C215.561 151.248 215.339 151.31 215.111 151.32C214.883 151.329 214.656 151.286 214.448 151.193Z" fill="#5793CE"/>
<path d="M220.906 154.903L216.725 152.5C216.389 152.308 216.433 151.967 216.818 151.744L220.962 149.366C221.162 149.256 221.384 149.193 221.612 149.183C221.84 149.174 222.067 149.217 222.275 149.311L226.456 151.713C226.792 151.905 226.749 152.246 226.363 152.469L222.219 154.847C222.02 154.957 221.797 155.02 221.569 155.029C221.341 155.039 221.114 154.996 220.906 154.903Z" fill="#5793CE"/>
<path d="M227.365 158.612L223.184 156.209C222.848 156.017 222.891 155.677 223.277 155.454L227.421 153.076C227.62 152.965 227.843 152.903 228.071 152.893C228.299 152.883 228.526 152.927 228.734 153.02L232.915 155.423C233.251 155.615 233.207 155.956 232.822 156.178L228.678 158.557C228.478 158.667 228.256 158.729 228.028 158.739C227.8 158.748 227.573 158.705 227.365 158.612Z" fill="#5793CE"/>
<path d="M233.823 162.322L229.642 159.919C229.306 159.727 229.35 159.392 229.735 159.169L233.879 156.785C234.079 156.674 234.301 156.612 234.53 156.603C234.758 156.594 234.985 156.64 235.192 156.736L239.373 159.138C239.709 159.33 239.666 159.665 239.28 159.888L235.136 162.272C234.937 162.383 234.714 162.445 234.486 162.454C234.257 162.463 234.03 162.417 233.823 162.322Z" fill="#5793CE"/>
<path d="M240.3 166.038L236.119 163.635C235.783 163.437 235.827 163.102 236.213 162.879L240.356 160.501C240.556 160.391 240.778 160.328 241.006 160.318C241.234 160.309 241.461 160.352 241.669 160.445L245.851 162.848C246.187 163.04 246.143 163.375 245.757 163.598L241.613 165.982C241.414 166.092 241.191 166.154 240.964 166.164C240.736 166.174 240.509 166.13 240.3 166.038Z" fill="#5793CE"/>
<path d="M251.768 172.633L242.64 167.387C242.304 167.196 242.348 166.861 242.733 166.638L246.877 164.254C247.077 164.143 247.299 164.08 247.528 164.072C247.756 164.063 247.983 164.109 248.19 164.204L257.312 169.444C257.648 169.636 257.604 169.976 257.218 170.199L253.074 172.577C252.876 172.688 252.655 172.75 252.428 172.76C252.201 172.77 251.975 172.726 251.768 172.633Z" fill="#5793CE"/>
<path d="M264.336 165.406L256.64 160.984C256.304 160.792 256.341 160.452 256.733 160.229L260.877 157.851C261.075 157.74 261.296 157.678 261.523 157.668C261.75 157.658 261.976 157.702 262.183 157.795L269.886 162.223C270.222 162.415 270.179 162.749 269.793 162.972L265.649 165.356C265.45 165.468 265.227 165.53 264.999 165.539C264.77 165.547 264.543 165.502 264.336 165.406Z" fill="#5793CE"/>
<path d="M199.926 135.618L195.744 133.215C195.408 133.023 195.452 132.683 195.838 132.46L199.982 130.082C200.18 129.971 200.401 129.908 200.628 129.899C200.855 129.889 201.081 129.933 201.288 130.026L205.457 132.423C205.793 132.615 205.749 132.955 205.364 133.178L201.22 135.556C201.023 135.664 200.804 135.726 200.58 135.737C200.356 135.748 200.132 135.707 199.926 135.618Z" fill="#5793CE"/>
<path d="M193.305 131.803L189.124 129.4C188.788 129.208 188.832 128.868 189.217 128.645L193.361 126.267C193.561 126.156 193.783 126.094 194.011 126.084C194.239 126.074 194.466 126.118 194.674 126.211L198.855 128.614C199.191 128.806 199.148 129.146 198.762 129.369L194.618 131.747C194.419 131.858 194.196 131.92 193.968 131.93C193.74 131.939 193.513 131.896 193.305 131.803Z" fill="#5793CE"/>
<path d="M186.685 128.013L182.504 125.61C182.168 125.412 182.211 125.078 182.597 124.855L186.741 122.476C186.941 122.366 187.163 122.304 187.391 122.294C187.619 122.285 187.846 122.328 188.054 122.421L192.235 124.824C192.571 125.016 192.528 125.35 192.142 125.573L187.998 127.957C187.799 128.068 187.576 128.13 187.348 128.14C187.12 128.15 186.893 128.106 186.685 128.013Z" fill="#5793CE"/>
<path d="M180.065 124.211L175.884 121.802C175.548 121.61 175.591 121.275 175.977 121.052L180.121 118.668C180.32 118.557 180.543 118.495 180.771 118.486C181 118.477 181.227 118.523 181.434 118.618L185.615 121.021C185.951 121.213 185.907 121.548 185.522 121.771L181.378 124.155C181.178 124.265 180.956 124.328 180.728 124.338C180.5 124.347 180.273 124.304 180.065 124.211Z" fill="#5793CE"/>
<path d="M206.384 139.327L202.203 136.925C201.867 136.733 201.91 136.398 202.296 136.175L206.44 133.791C206.638 133.68 206.86 133.618 207.087 133.609C207.315 133.6 207.541 133.646 207.747 133.741L211.934 136.144C212.27 136.336 212.227 136.671 211.841 136.894L207.697 139.278C207.498 139.389 207.275 139.451 207.046 139.46C206.818 139.468 206.591 139.423 206.384 139.327Z" fill="#5793CE"/>
<path d="M212.843 143.043L208.661 140.641C208.325 140.442 208.369 140.108 208.755 139.885L212.899 137.507C213.097 137.396 213.318 137.334 213.545 137.324C213.772 137.314 213.998 137.358 214.205 137.451L218.393 139.854C218.729 140.046 218.685 140.38 218.299 140.603L214.168 142.988C213.967 143.1 213.742 143.163 213.512 143.173C213.282 143.183 213.052 143.138 212.843 143.043Z" fill="#5793CE"/>
<path d="M219.301 146.753L215.12 144.35C214.784 144.158 214.827 143.817 215.213 143.594L219.357 141.216C219.555 141.106 219.777 141.043 220.004 141.034C220.231 141.024 220.457 141.067 220.664 141.161L224.851 143.564C225.187 143.756 225.144 144.096 224.758 144.319L220.614 146.697C220.414 146.807 220.192 146.87 219.964 146.879C219.736 146.889 219.509 146.846 219.301 146.753Z" fill="#5793CE"/>
<path d="M225.76 150.462L221.578 148.059C221.242 147.867 221.286 147.533 221.672 147.31L225.816 144.926C226.014 144.815 226.235 144.753 226.462 144.743C226.689 144.733 226.915 144.777 227.122 144.87L231.31 147.273C231.646 147.471 231.602 147.806 231.216 148.029L227.072 150.413C226.873 150.522 226.65 150.584 226.422 150.593C226.194 150.601 225.967 150.557 225.76 150.462Z" fill="#5793CE"/>
<path d="M232.212 154.178L228.031 151.769C227.695 151.577 227.738 151.243 228.124 151.02L232.268 148.635C232.467 148.526 232.688 148.464 232.915 148.456C233.142 148.447 233.368 148.492 233.574 148.586L237.762 150.989C238.098 151.181 238.054 151.515 237.669 151.738L233.531 154.098C233.333 154.213 233.11 154.28 232.881 154.294C232.652 154.308 232.423 154.268 232.212 154.178Z" fill="#5793CE"/>
<path d="M238.677 157.888L234.495 155.485C234.159 155.293 234.203 154.952 234.589 154.729L238.733 152.351C238.931 152.241 239.152 152.178 239.379 152.168C239.606 152.159 239.832 152.202 240.039 152.295L244.227 154.698C244.563 154.89 244.519 155.231 244.133 155.454L239.989 157.813C239.791 157.926 239.57 157.992 239.342 158.005C239.114 158.018 238.886 157.978 238.677 157.888Z" fill="#5793CE"/>
<path d="M245.135 161.597L240.954 159.194C240.618 159.002 240.661 158.662 241.047 158.445L245.191 156.061C245.389 155.95 245.611 155.887 245.838 155.878C246.065 155.868 246.291 155.912 246.498 156.005L250.685 158.408C251.021 158.606 250.977 158.94 250.592 159.163L246.448 161.529C246.249 161.641 246.027 161.706 245.799 161.717C245.572 161.729 245.344 161.688 245.135 161.597Z" fill="#5793CE"/>
<path d="M251.593 165.307L247.412 162.904C247.076 162.712 247.12 162.378 247.506 162.155L251.649 159.77C251.848 159.659 252.07 159.597 252.297 159.588C252.524 159.58 252.75 159.625 252.956 159.721L257.144 162.124C257.48 162.316 257.436 162.65 257.05 162.873L252.906 165.245C252.708 165.358 252.486 165.422 252.257 165.433C252.029 165.444 251.802 165.401 251.593 165.307Z" fill="#5793CE"/>
<path d="M258.052 169.022L253.871 166.62C253.535 166.428 253.578 166.087 253.964 165.864L258.108 163.486C258.307 163.375 258.53 163.313 258.758 163.303C258.986 163.293 259.213 163.337 259.421 163.43L263.602 165.833C263.938 166.025 263.894 166.366 263.509 166.582L259.365 168.961C259.166 169.072 258.944 169.135 258.716 169.146C258.488 169.157 258.261 169.114 258.052 169.022Z" fill="#5793CE"/>
<path d="M196.522 126.44L192.341 124.037C192.005 123.845 192.048 123.505 192.434 123.282L196.578 120.904C196.778 120.794 197 120.731 197.228 120.722C197.456 120.712 197.683 120.755 197.891 120.848L202.072 123.251C202.408 123.443 202.365 123.783 201.979 124.006L197.835 126.384C197.636 126.495 197.413 126.558 197.185 126.567C196.957 126.577 196.73 126.533 196.522 126.44Z" fill="#5793CE"/>
<path d="M190.101 122.743L185.914 120.34C185.578 120.148 185.621 119.814 186.013 119.591L190.157 117.206C190.355 117.095 190.577 117.033 190.804 117.024C191.032 117.016 191.258 117.061 191.464 117.157L195.645 119.56C195.981 119.752 195.937 120.086 195.552 120.309L191.408 122.693C191.209 122.804 190.988 122.867 190.76 122.875C190.533 122.884 190.307 122.839 190.101 122.743Z" fill="#5793CE"/>
<path d="M183.68 119.052L179.499 116.649C179.163 116.457 179.2 116.123 179.592 115.9L183.736 113.516C183.934 113.405 184.156 113.343 184.383 113.333C184.609 113.323 184.836 113.367 185.043 113.46L189.224 115.863C189.56 116.061 189.522 116.395 189.13 116.618L184.987 118.996C184.788 119.107 184.567 119.17 184.34 119.179C184.113 119.189 183.887 119.145 183.68 119.052Z" fill="#5793CE"/>
<path d="M177.246 115.361L173.065 112.958C172.729 112.766 172.773 112.425 173.158 112.202L177.302 109.824C177.5 109.714 177.722 109.651 177.949 109.641C178.176 109.632 178.402 109.675 178.609 109.769L182.796 112.171C183.126 112.363 183.089 112.704 182.697 112.927L178.553 115.305C178.355 115.416 178.133 115.478 177.906 115.488C177.679 115.498 177.453 115.454 177.246 115.361Z" fill="#5793CE"/>
<path d="M183.854 111.565L179.673 109.162C179.337 108.964 179.38 108.629 179.766 108.406L181.135 107.62C181.334 107.509 181.557 107.447 181.785 107.437C182.013 107.427 182.24 107.471 182.448 107.564L186.629 109.967C186.965 110.159 186.922 110.5 186.536 110.722L185.161 111.509C184.962 111.619 184.741 111.682 184.514 111.692C184.287 111.701 184.061 111.658 183.854 111.565Z" fill="#5793CE"/>
<path d="M192.241 116.383L188.035 113.98C187.699 113.788 187.737 113.448 188.129 113.225L189.497 112.438C189.696 112.328 189.917 112.265 190.144 112.255C190.371 112.246 190.597 112.289 190.804 112.382L194.992 114.785C195.328 114.983 195.284 115.318 194.898 115.541L193.548 116.321C193.35 116.433 193.129 116.496 192.902 116.507C192.675 116.518 192.449 116.475 192.241 116.383Z" fill="#5793CE"/>
<path d="M198.613 120.037L194.432 117.634C194.096 117.436 194.139 117.101 194.525 116.878L195.894 116.092C196.093 115.982 196.316 115.919 196.543 115.91C196.771 115.9 196.998 115.943 197.207 116.036L201.388 118.439C201.724 118.631 201.68 118.971 201.294 119.194L199.926 119.981C199.726 120.091 199.504 120.154 199.276 120.164C199.048 120.173 198.821 120.13 198.613 120.037Z" fill="#5793CE"/>
<path d="M205.04 123.752L200.859 121.343C200.523 121.151 200.567 120.817 200.952 120.594L202.321 119.807C202.52 119.697 202.743 119.634 202.971 119.624C203.199 119.615 203.426 119.658 203.634 119.752L207.815 122.154C208.151 122.346 208.108 122.687 207.722 122.91L206.347 123.696C206.149 123.807 205.927 123.87 205.7 123.879C205.473 123.889 205.247 123.845 205.04 123.752Z" fill="#5793CE"/>
<path d="M211.436 127.412L207.255 124.991C206.919 124.799 206.963 124.465 207.349 124.242L208.724 123.455C208.922 123.345 209.143 123.282 209.37 123.272C209.597 123.263 209.823 123.306 210.03 123.399L214.211 125.802C214.547 125.994 214.504 126.335 214.118 126.558L212.749 127.344C212.551 127.457 212.329 127.522 212.101 127.534C211.873 127.545 211.645 127.504 211.436 127.412Z" fill="#5793CE"/>
<path d="M247.145 147.948L242.957 145.545C242.621 145.347 242.665 145.012 243.057 144.79L244.426 144.003C244.624 143.892 244.845 143.83 245.072 143.82C245.299 143.81 245.525 143.854 245.732 143.947L249.914 146.35C250.25 146.542 250.212 146.883 249.82 147.106L248.451 147.892C248.253 148.003 248.032 148.065 247.805 148.075C247.578 148.085 247.352 148.041 247.145 147.948Z" fill="#5793CE"/>
<path d="M253.566 151.62L249.385 149.217C249.049 149.025 249.092 148.691 249.478 148.468L250.847 147.682C251.046 147.571 251.269 147.509 251.497 147.499C251.725 147.49 251.952 147.533 252.16 147.626L256.341 150.029C256.677 150.221 256.633 150.561 256.248 150.784L254.879 151.571C254.679 151.682 254.456 151.744 254.228 151.753C254 151.761 253.773 151.716 253.566 151.62Z" fill="#5793CE"/>
<path d="M259.968 155.299L255.781 152.896C255.451 152.704 255.489 152.37 255.88 152.147L257.249 151.354C257.448 151.246 257.67 151.185 257.897 151.177C258.123 151.168 258.349 151.212 258.556 151.305L262.737 153.708C263.073 153.9 263.036 154.234 262.644 154.457L261.275 155.243C261.077 155.354 260.855 155.417 260.628 155.426C260.401 155.436 260.175 155.392 259.968 155.299Z" fill="#5793CE"/>
<path d="M266.365 158.978L262.183 156.575C261.847 156.383 261.891 156.042 262.277 155.819L263.646 155.033C263.845 154.922 264.068 154.859 264.296 154.851C264.524 154.842 264.751 154.887 264.958 154.983L269.14 157.386C269.476 157.578 269.432 157.912 269.046 158.135L267.677 158.922C267.478 159.032 267.256 159.094 267.028 159.104C266.8 159.114 266.573 159.07 266.365 158.978Z" fill="#5793CE"/>
<path d="M202.968 130.15L198.787 127.747C198.451 127.555 198.495 127.214 198.88 126.991L203.024 124.613C203.224 124.503 203.446 124.441 203.674 124.431C203.902 124.421 204.129 124.465 204.337 124.557L208.518 126.96C208.854 127.152 208.811 127.493 208.425 127.716L204.281 130.094C204.082 130.205 203.859 130.267 203.631 130.277C203.403 130.287 203.176 130.243 202.968 130.15Z" fill="#5793CE"/>
<path d="M209.439 133.859L205.258 131.456C204.922 131.264 204.965 130.93 205.351 130.707L209.495 128.323C209.694 128.212 209.917 128.149 210.146 128.141C210.374 128.132 210.601 128.177 210.808 128.273L214.989 130.676C215.325 130.868 215.282 131.202 214.896 131.425L210.752 133.81C210.553 133.921 210.33 133.983 210.102 133.992C209.873 134 209.646 133.955 209.439 133.859Z" fill="#5793CE"/>
<path d="M215.898 137.575L211.716 135.172C211.38 134.974 211.424 134.64 211.81 134.417L215.954 132.039C216.153 131.928 216.376 131.866 216.603 131.856C216.831 131.847 217.058 131.89 217.266 131.983L221.448 134.386C221.784 134.578 221.74 134.912 221.354 135.135L217.21 137.519C217.011 137.63 216.789 137.692 216.561 137.702C216.333 137.712 216.106 137.668 215.898 137.575Z" fill="#5793CE"/>
<path d="M222.356 141.284L218.175 138.882C217.839 138.69 217.882 138.349 218.268 138.126L222.412 135.748C222.612 135.638 222.834 135.575 223.062 135.566C223.29 135.556 223.517 135.599 223.725 135.692L227.906 138.095C228.242 138.287 228.199 138.628 227.813 138.851L223.669 141.229C223.47 141.339 223.247 141.402 223.019 141.412C222.791 141.421 222.564 141.378 222.356 141.284Z" fill="#5793CE"/>
<path d="M228.815 144.994L224.633 142.591C224.297 142.399 224.341 142.065 224.727 141.842L228.871 139.457C229.07 139.347 229.293 139.285 229.52 139.275C229.748 139.266 229.975 139.309 230.183 139.402L234.365 141.805C234.701 142.003 234.657 142.337 234.271 142.56L230.127 144.944C229.928 145.054 229.705 145.116 229.477 145.124C229.249 145.133 229.022 145.088 228.815 144.994Z" fill="#5793CE"/>
<path d="M235.273 148.71L231.092 146.301C230.756 146.109 230.799 145.774 231.185 145.551L235.329 143.167C235.529 143.058 235.752 142.996 235.98 142.987C236.208 142.979 236.434 143.023 236.642 143.118L240.823 145.52C241.159 145.712 241.116 146.047 240.73 146.27L236.567 148.654C236.37 148.762 236.151 148.823 235.927 148.832C235.702 148.842 235.479 148.8 235.273 148.71Z" fill="#5793CE"/>
<path d="M241.731 152.419L237.55 150.016C237.214 149.824 237.258 149.484 237.644 149.261L241.788 146.883C241.987 146.773 242.209 146.71 242.437 146.701C242.665 146.691 242.892 146.734 243.1 146.827L247.282 149.23C247.618 149.422 247.574 149.762 247.188 149.985L243.044 152.363C242.845 152.474 242.623 152.537 242.395 152.546C242.167 152.556 241.94 152.512 241.731 152.419Z" fill="#5793CE"/>
<path d="M248.19 156.129L244.034 153.726C243.698 153.534 243.741 153.193 244.127 152.976L248.271 150.592C248.47 150.482 248.693 150.42 248.921 150.41C249.149 150.4 249.376 150.444 249.584 150.536L253.765 152.939C254.101 153.131 254.057 153.472 253.672 153.695L249.528 156.073C249.325 156.188 249.098 156.252 248.866 156.262C248.633 156.272 248.401 156.226 248.19 156.129Z" fill="#5793CE"/>
<path d="M254.648 159.839L250.467 157.436C250.131 157.244 250.175 156.909 250.561 156.686L254.704 154.302C254.904 154.191 255.127 154.129 255.355 154.12C255.583 154.112 255.81 154.157 256.017 154.253L260.199 156.656C260.535 156.847 260.491 157.182 260.105 157.405L255.961 159.789C255.762 159.9 255.539 159.963 255.311 159.971C255.083 159.98 254.856 159.934 254.648 159.839Z" fill="#5793CE"/>
<path d="M166.059 130.608L153.739 123.529C153.403 123.337 153.447 123.003 153.839 122.78L157.983 120.396C158.181 120.285 158.403 120.222 158.629 120.213C158.856 120.203 159.083 120.247 159.289 120.34L171.609 127.418C171.945 127.61 171.902 127.951 171.516 128.174L167.372 130.564C167.171 130.673 166.948 130.733 166.721 130.74C166.493 130.748 166.266 130.702 166.059 130.608Z" fill="#5793CE"/>
<path d="M245.403 176.206L233.089 169.128C232.753 168.93 232.79 168.595 233.182 168.372L237.326 165.994C237.525 165.884 237.746 165.821 237.973 165.811C238.2 165.802 238.426 165.845 238.633 165.938L250.953 173.017C251.289 173.209 251.245 173.543 250.859 173.766L246.715 176.151C246.516 176.261 246.293 176.323 246.066 176.333C245.838 176.342 245.611 176.299 245.403 176.206Z" fill="#5793CE"/>
<path d="M219.575 169.58L215.412 167.158C215.076 166.96 215.12 166.626 215.506 166.403L220.44 163.566C220.639 163.456 220.862 163.394 221.089 163.384C221.317 163.374 221.544 163.418 221.752 163.511L225.934 165.913C226.27 166.105 226.226 166.446 225.84 166.669L220.906 169.505C220.706 169.621 220.481 169.689 220.249 169.702C220.018 169.715 219.787 169.673 219.575 169.58Z" fill="#5793CE"/>
<path d="M172.673 142.61L165.984 138.764C165.648 138.572 165.692 138.231 166.078 138.008L171.012 135.172C171.211 135.061 171.434 134.998 171.662 134.99C171.89 134.981 172.117 135.027 172.325 135.122L179.013 138.962C179.349 139.154 179.306 139.495 178.92 139.717L173.986 142.554C173.786 142.664 173.564 142.726 173.336 142.736C173.108 142.746 172.881 142.702 172.673 142.61Z" fill="#5793CE"/>
<path d="M213.353 165.982L206.664 162.148C206.328 161.95 206.372 161.616 206.757 161.393L211.691 158.557C211.891 158.446 212.113 158.384 212.341 158.374C212.569 158.365 212.796 158.408 213.004 158.501L219.693 162.347C220.029 162.539 219.985 162.873 219.6 163.096L214.659 165.932C214.461 166.042 214.239 166.103 214.012 166.112C213.785 166.121 213.559 166.076 213.353 165.982Z" fill="#5793CE"/>
<path d="M181.994 147.96L175.305 144.121C174.969 143.923 175.006 143.588 175.398 143.365L180.332 140.529C180.532 140.418 180.754 140.356 180.982 140.346C181.21 140.336 181.437 140.38 181.645 140.473L188.334 144.319C188.67 144.511 188.626 144.845 188.234 145.068L183.3 147.905C183.102 148.015 182.881 148.078 182.654 148.088C182.427 148.097 182.201 148.054 181.994 147.96Z" fill="#5793CE"/>
<path d="M181.689 140.473L210.771 157.194C210.849 157.221 210.917 157.271 210.965 157.339C211.013 157.406 211.039 157.486 211.039 157.569C211.039 157.651 211.013 157.732 210.965 157.799C210.917 157.866 210.849 157.916 210.771 157.943L205.737 160.835C205.535 160.939 205.311 160.993 205.084 160.993C204.856 160.993 204.632 160.939 204.43 160.835L175.349 144.115L181.689 140.473Z" fill="#5793CE"/>
<path d="M237.625 176.287L242.285 178.962C242.559 179.123 242.522 179.402 242.204 179.581L240.188 180.727C240.024 180.814 239.842 180.863 239.655 180.871C239.469 180.878 239.283 180.844 239.112 180.771L234.452 178.089C234.178 177.934 234.215 177.655 234.533 177.47L236.567 176.33C236.729 176.246 236.908 176.198 237.091 176.191C237.274 176.184 237.456 176.216 237.625 176.287Z" fill="#5793CE"/>
<path d="M231.11 172.546L235.771 175.222C236.045 175.383 236.013 175.655 235.696 175.841L233.674 177.012C233.512 177.103 233.33 177.155 233.144 177.162C232.958 177.17 232.773 177.133 232.604 177.055L227.943 174.38C227.67 174.225 227.701 173.946 228.018 173.76L230.04 172.602C230.202 172.51 230.383 172.457 230.569 172.447C230.755 172.438 230.94 172.472 231.11 172.546Z" fill="#5793CE"/>
<path d="M224.652 168.837L229.312 171.512C229.586 171.667 229.555 171.946 229.238 172.131L227.234 173.296C227.072 173.386 226.89 173.437 226.704 173.444C226.518 173.452 226.333 173.416 226.164 173.339L221.504 170.664C221.23 170.503 221.261 170.23 221.578 170.044L223.601 168.886C223.76 168.797 223.938 168.746 224.12 168.737C224.303 168.729 224.485 168.763 224.652 168.837Z" fill="#5793CE"/>
<path d="M234.701 170.496L239.355 173.172C239.635 173.333 239.597 173.605 239.28 173.791L237.258 174.949C237.096 175.04 236.914 175.092 236.728 175.1C236.542 175.107 236.357 175.07 236.188 174.992L231.527 172.317C231.254 172.162 231.285 171.883 231.602 171.698L233.624 170.533C233.788 170.444 233.971 170.394 234.158 170.388C234.345 170.381 234.531 170.419 234.701 170.496Z" fill="#5793CE"/>
<path d="M260.192 98.0765L225.405 78.0858L225.853 75.8315L260.64 95.8284L260.192 98.0765Z" fill="#D4ECFF"/>
<path d="M247.736 101.873L223.451 87.9204L223.899 85.6724L248.178 99.625L247.736 101.873Z" fill="#D4ECFF"/>
<path d="M245.434 95.0791L224.428 83.0029L224.876 80.7549L245.882 92.8249L245.434 95.0791Z" fill="white"/>
<path d="M259.215 102.994L248.713 96.9555L249.161 94.7075L259.663 100.746L259.215 102.994Z" fill="#FF2C9C"/>
<path d="M221.697 58.4481L211.194 52.41L211.642 50.1558L222.145 56.1938L221.697 58.4481Z" fill="#D4ECFF"/>
<path d="M220.558 63.681L210.055 57.6429L210.503 55.3887L221.006 61.4268L220.558 63.681Z" fill="white"/>
<path d="M272.114 136.237L261.611 130.199L262.059 127.951L272.562 133.989L272.114 136.237Z" fill="#D4ECFF"/>
<path d="M218.281 74.1411L207.778 68.103L208.226 65.855L218.729 71.8869L218.281 74.1411Z" fill="#D4ECFF"/>
<path d="M240.972 75.7633C240.896 75.9307 240.785 76.0802 240.647 76.2018C240.508 76.3234 240.346 76.4144 240.169 76.4688C239.993 76.5232 239.807 76.5398 239.624 76.5175C239.44 76.4952 239.264 76.4344 239.106 76.3393C238.761 76.1388 238.502 75.8198 238.377 75.4422C238.252 75.0646 238.27 74.6546 238.428 74.2894C238.504 74.1221 238.615 73.9728 238.753 73.8511C238.892 73.7294 239.054 73.6382 239.23 73.5832C239.406 73.5283 239.592 73.5109 239.776 73.5323C239.959 73.5537 240.136 73.6133 240.294 73.7073C240.639 73.9098 240.897 74.23 241.022 74.6083C241.147 74.9865 241.129 75.397 240.972 75.7633Z" fill="#FF2C9C"/>
<path d="M245.502 78.3644C245.425 78.5311 245.314 78.6799 245.175 78.8009C245.037 78.9219 244.874 79.0126 244.698 79.0669C244.522 79.1212 244.336 79.138 244.153 79.1162C243.97 79.0944 243.794 79.0345 243.635 78.9403C243.292 78.7389 243.033 78.4198 242.908 78.0426C242.783 77.6654 242.801 77.2558 242.957 76.8905C243.034 76.7232 243.145 76.5739 243.283 76.4522C243.421 76.3305 243.584 76.2392 243.76 76.1843C243.936 76.1293 244.122 76.112 244.305 76.1334C244.488 76.1548 244.665 76.2144 244.824 76.3083C245.167 76.5118 245.425 76.8321 245.55 77.21C245.674 77.5879 245.657 77.9979 245.502 78.3644Z" fill="white"/>
<path d="M250.026 80.9596C249.949 81.1269 249.838 81.2762 249.7 81.3979C249.562 81.5196 249.399 81.6109 249.223 81.6658C249.047 81.7207 248.861 81.7381 248.678 81.7167C248.494 81.6953 248.318 81.6357 248.159 81.5417C247.816 81.3383 247.558 81.018 247.433 80.6401C247.308 80.2622 247.325 79.8522 247.481 79.4857C247.558 79.319 247.669 79.1702 247.808 79.0492C247.946 78.9282 248.109 78.8375 248.285 78.7832C248.461 78.7289 248.647 78.7121 248.83 78.7339C249.013 78.7557 249.189 78.8156 249.347 78.9098C249.691 79.1112 249.95 79.4303 250.075 79.8075C250.199 80.1847 250.182 80.5942 250.026 80.9596Z" fill="#D4ECFF"/>
<path d="M254.549 83.5605C254.473 83.7277 254.362 83.8771 254.223 83.9987C254.085 84.1204 253.922 84.2117 253.746 84.2666C253.57 84.3216 253.384 84.3389 253.201 84.3175C253.018 84.2962 252.841 84.2365 252.682 84.1426C252.339 83.9391 252.082 83.6185 251.958 83.2403C251.834 82.8621 251.853 82.4521 252.01 82.0865C252.087 81.9191 252.198 81.7697 252.336 81.6481C252.474 81.5265 252.637 81.4355 252.814 81.3811C252.99 81.3267 253.176 81.3101 253.359 81.3324C253.543 81.3547 253.719 81.4154 253.877 81.5106C254.22 81.713 254.477 82.0325 254.601 82.4096C254.724 82.7868 254.706 83.1958 254.549 83.5605Z" fill="#FF2C9C"/>
<path d="M179.324 177.259L150.485 160.687C149.645 160.21 149.751 159.368 150.722 158.829L168.143 148.827C168.64 148.551 169.195 148.395 169.764 148.371C170.332 148.348 170.898 148.457 171.416 148.691L200.255 165.245C201.095 165.728 200.99 166.57 200.019 167.103L182.597 177.104C182.102 177.383 181.548 177.543 180.979 177.57C180.411 177.596 179.844 177.49 179.324 177.259Z" fill="white"/>
<path d="M241.931 102.628C243.916 103.768 243.916 105.626 241.931 106.771L208.157 126.174C207.852 126.329 207.514 126.41 207.171 126.41C206.828 126.41 206.49 126.329 206.185 126.174C206.073 126.126 205.977 126.047 205.91 125.946C205.843 125.844 205.807 125.726 205.807 125.604C205.807 125.483 205.843 125.364 205.91 125.263C205.977 125.161 206.073 125.082 206.185 125.034L239.952 105.632C240.848 105.118 240.848 104.282 239.952 103.774L236.679 101.916C237.04 101.371 237.37 100.801 237.693 100.226L241.931 102.628Z" fill="#D4ECFF"/>
<path d="M194.102 118.092L227.856 98.6897C228.973 98.128 230.207 97.8354 231.459 97.8354C232.71 97.8354 233.944 98.128 235.062 98.6897L237.681 100.195C237.357 100.771 237.028 101.34 236.667 101.885L233.083 99.8292C232.58 99.5727 232.024 99.4389 231.459 99.4389C230.894 99.4389 230.338 99.5727 229.835 99.8292L196.08 119.232C195.774 119.387 195.435 119.468 195.091 119.468C194.747 119.468 194.408 119.387 194.102 119.232C193.99 119.184 193.894 119.105 193.827 119.003C193.759 118.902 193.723 118.783 193.723 118.662C193.723 118.54 193.759 118.422 193.827 118.32C193.894 118.219 193.99 118.14 194.102 118.092Z" fill="#5793CE"/>
<path d="M193.697 118.705L193.691 71.4409L229.082 51.8094L234.029 51.4812L238.813 54.5653L241.75 57.1105L207.274 111.528L196.018 118.135L193.697 118.705Z" fill="#5793CE"/>
<path d="M206.782 124.669L196.205 118.594V72.921L207.112 77.9621L206.782 124.669Z" fill="#79B1E0"/>
<path d="M243.418 57.4759V104.66L206.272 125.808L205.774 125.61V78.3584L243.418 57.4759Z" fill="#D4ECFF"/>
<path d="M229.903 53.6487C230.39 53.4418 230.915 53.3423 231.444 53.3573C231.972 53.3723 232.491 53.5013 232.965 53.7354L239.809 57.6741C240.023 57.7651 240.201 57.9249 240.314 58.128C240.427 58.3311 240.468 58.5659 240.431 58.795L221.765 69.8927L206.782 79.0458L196.168 72.921L229.903 53.6487Z" fill="white"/>
<path d="M207.112 77.6214V126.403C206.789 126.405 206.47 126.326 206.185 126.174C206.074 126.124 205.978 126.047 205.906 125.949C205.834 125.851 205.788 125.737 205.774 125.616V78.3584L207.112 77.6214Z" fill="#5793CE"/>
<path d="M193.691 72.0293V71.4409H193.884L193.94 71.8435L193.691 72.0293Z" fill="white"/>
<path d="M205.774 78.9715V78.3708L205.955 78.6247L205.774 78.9715Z" fill="white"/>
<path d="M208.157 78.922L241.931 59.5134C243.916 58.3739 243.916 56.516 241.931 55.3765L235.086 51.4379C233.969 50.8761 232.735 50.5835 231.484 50.5835C230.232 50.5835 228.998 50.8761 227.881 51.4379L194.114 70.8402C194.002 70.8878 193.906 70.9672 193.839 71.0685C193.772 71.1698 193.736 71.2885 193.736 71.41C193.736 71.5314 193.772 71.6501 193.839 71.7514C193.906 71.8527 194.002 71.9321 194.114 71.9797C194.421 72.1352 194.76 72.2163 195.104 72.2163C195.448 72.2163 195.787 72.1352 196.093 71.9797L229.847 52.5712C230.351 52.3176 230.907 52.1854 231.471 52.1854C232.036 52.1854 232.592 52.3176 233.095 52.5712L239.94 56.5098C240.836 57.0238 240.836 57.8661 239.94 58.3677L206.173 77.7701C206.06 77.8177 205.965 77.8971 205.897 77.9984C205.83 78.0997 205.794 78.2184 205.794 78.3398C205.794 78.4613 205.83 78.58 205.897 78.6813C205.965 78.7826 206.06 78.862 206.173 78.9096C206.479 79.0661 206.819 79.1488 207.164 79.1509C207.508 79.1531 207.849 79.0746 208.157 78.922Z" fill="#D4ECFF"/>
<path d="M216.962 101.291L234.508 91.2087V73.6951L216.962 83.7834V101.291Z" fill="white"/>
<path d="M194.102 71.9797C194.408 72.1352 194.747 72.2163 195.091 72.2163C195.435 72.2163 195.774 72.1352 196.08 71.9797L229.847 52.5712C230.351 52.3176 230.907 52.1854 231.471 52.1854C232.036 52.1854 232.592 52.3176 233.095 52.5712L239.94 56.5098C240.525 56.8504 240.724 57.3211 240.562 57.7484C240.429 57.4795 240.21 57.2618 239.94 57.1291L233.095 53.1904C232.592 52.9369 232.036 52.8047 231.471 52.8047C230.907 52.8047 230.351 52.9369 229.847 53.1904L196.08 72.599C195.774 72.7545 195.435 72.8356 195.091 72.8356C194.747 72.8356 194.408 72.7545 194.102 72.599C193.691 72.3637 193.592 72.0169 193.803 71.7196C193.883 71.8261 193.985 71.9147 194.102 71.9797Z" fill="white"/>
<path d="M206.185 78.922C206.491 79.0745 206.829 79.154 207.171 79.154C207.514 79.154 207.851 79.0745 208.157 78.922L241.931 59.5134C242.292 59.3461 242.612 59.1019 242.868 58.798C243.124 58.494 243.309 58.1379 243.412 57.7546C243.567 58.6092 243.082 59.4886 241.956 60.1389L208.182 79.5413C207.877 79.6967 207.539 79.7778 207.196 79.7778C206.853 79.7778 206.515 79.6967 206.21 79.5413C205.793 79.3059 205.693 78.922 205.905 78.6619C205.981 78.7657 206.076 78.854 206.185 78.922Z" fill="white"/>
<path d="M257.455 111.775C259.44 112.915 259.44 114.773 257.455 115.918L223.688 135.321C223.381 135.476 223.042 135.557 222.698 135.557C222.354 135.557 222.015 135.476 221.709 135.321C221.599 135.272 221.505 135.193 221.439 135.092C221.373 134.992 221.338 134.874 221.338 134.754C221.338 134.634 221.373 134.516 221.439 134.416C221.505 134.315 221.599 134.236 221.709 134.187L255.476 114.779C256.372 114.265 256.372 113.429 255.476 112.921L252.203 111.063C252.564 110.518 252.894 109.955 253.217 109.372L257.455 111.775Z" fill="#FF2C9C"/>
<path d="M209.626 127.245L243.412 107.837C244.529 107.275 245.763 106.982 247.014 106.982C248.266 106.982 249.5 107.275 250.617 107.837L253.236 109.342C252.913 109.924 252.583 110.487 252.222 111.032L248.644 108.976C248.14 108.722 247.582 108.59 247.017 108.59C246.452 108.59 245.895 108.722 245.39 108.976L211.623 128.378C211.317 128.534 210.978 128.615 210.634 128.615C210.29 128.615 209.951 128.534 209.645 128.378C209.533 128.332 209.438 128.254 209.37 128.155C209.303 128.055 209.266 127.938 209.264 127.818C209.262 127.698 209.295 127.58 209.359 127.478C209.424 127.376 209.516 127.295 209.626 127.245Z" fill="#D3008D"/>
<path d="M209.221 127.852V80.5879L244.606 60.9563L249.553 60.6281L254.337 63.7184L257.274 66.2575L222.798 120.681L211.542 127.282L209.221 127.852Z" fill="#D3008D"/>
<path d="M222.306 133.822L211.729 127.741V82.068L222.636 87.109L222.306 133.822Z" fill="#E573B5"/>
<path d="M258.942 66.6228V113.807L221.796 134.962L221.298 134.763V87.5053L258.942 66.6228Z" fill="#FF2C9C"/>
<path d="M245.434 62.7956C245.919 62.5881 246.444 62.4889 246.972 62.5049C247.499 62.521 248.017 62.6519 248.489 62.8885L255.333 66.821C255.862 67.1307 256.08 67.5456 255.955 67.9419L237.289 79.0396L222.306 88.1927L211.692 82.068L245.434 62.7956Z" fill="white"/>
<path d="M222.636 86.7684V135.556C222.313 135.552 221.995 135.472 221.709 135.321C221.597 135.272 221.5 135.195 221.428 135.097C221.356 134.999 221.311 134.884 221.298 134.763V87.5115L222.636 86.7684Z" fill="#D3008D"/>
<path d="M209.221 81.1762V80.5879L209.408 80.5878L209.464 80.9904L209.221 81.1762Z" fill="white"/>
<path d="M221.298 88.1184V87.5177L221.485 87.7716L221.298 88.1184Z" fill="white"/>
<path d="M223.688 88.0689L257.455 68.6665C259.44 67.5208 259.44 65.6629 257.455 64.5235L250.61 60.5848C249.494 60.0241 248.261 59.732 247.011 59.732C245.761 59.732 244.528 60.0241 243.412 60.5848L209.626 79.9933C209.515 80.0418 209.422 80.1211 209.356 80.2218C209.29 80.3224 209.255 80.4399 209.255 80.56C209.255 80.6801 209.29 80.7976 209.356 80.8982C209.422 80.9988 209.515 81.0782 209.626 81.1266C209.932 81.2821 210.271 81.3632 210.615 81.3632C210.959 81.3632 211.298 81.2821 211.604 81.1266L245.371 61.7243C245.876 61.4706 246.433 61.3385 246.999 61.3385C247.564 61.3385 248.121 61.4706 248.626 61.7243L255.47 65.6629C256.366 66.177 256.366 67.013 255.47 67.5208L221.703 86.9232C221.591 86.9708 221.495 87.0502 221.428 87.1515C221.36 87.2528 221.324 87.3715 221.324 87.4929C221.324 87.6144 221.36 87.7331 221.428 87.8344C221.495 87.9357 221.591 88.0151 221.703 88.0627C222.009 88.2202 222.349 88.3029 222.694 88.3039C223.04 88.305 223.38 88.2244 223.688 88.0689Z" fill="#FF2C9C"/>
<path d="M232.486 110.438L250.032 100.356V82.8483L232.486 92.9303V110.438Z" fill="white"/>
<path d="M209.626 81.1266C209.932 81.2821 210.271 81.3632 210.615 81.3632C210.959 81.3632 211.298 81.2821 211.604 81.1266L245.371 61.7243C245.876 61.4706 246.433 61.3385 246.999 61.3385C247.564 61.3385 248.121 61.4706 248.626 61.7243L255.47 65.6629C256.055 65.9974 256.254 66.4742 256.092 66.9015C255.96 66.6315 255.741 66.4133 255.47 66.2822L248.626 62.3436C248.121 62.0899 247.564 61.9578 246.999 61.9578C246.433 61.9578 245.876 62.0899 245.371 62.3436L211.604 81.7521C211.297 81.9048 210.959 81.9842 210.615 81.9842C210.272 81.9842 209.933 81.9048 209.626 81.7521C209.215 81.5106 209.116 81.1328 209.327 80.8727C209.408 80.9772 209.51 81.0637 209.626 81.1266Z" fill="white"/>
<path d="M221.709 88.0689C222.015 88.2244 222.354 88.3055 222.698 88.3055C223.042 88.3055 223.381 88.2244 223.688 88.0689L257.455 68.6665C257.81 68.4946 258.124 68.2486 258.375 67.9451C258.627 67.6416 258.809 67.2878 258.911 66.9077C259.066 67.7562 258.581 68.6355 257.455 69.2858L223.688 88.6882C223.381 88.8437 223.042 88.9247 222.698 88.9247C222.354 88.9247 222.015 88.8437 221.709 88.6882C221.292 88.4528 221.193 88.1061 221.41 87.8088C221.486 87.9196 221.589 88.0091 221.709 88.0689Z" fill="white"/>
<path d="M273.408 121.554C275.393 122.693 275.393 124.551 273.408 125.691L239.635 145.099C239.328 145.255 238.989 145.336 238.645 145.336C238.302 145.336 237.963 145.255 237.656 145.099C237.544 145.052 237.448 144.972 237.381 144.871C237.314 144.77 237.278 144.651 237.278 144.53C237.278 144.408 237.314 144.289 237.381 144.188C237.448 144.087 237.544 144.007 237.656 143.96L271.411 124.557C272.307 124.043 272.307 123.207 271.411 122.7L268.138 120.842C268.499 120.297 268.829 119.727 269.152 119.151L273.408 121.554Z" fill="#D4ECFF"/>
<path d="M225.579 137.018L259.346 117.615C260.463 117.054 261.697 116.761 262.949 116.761C264.2 116.761 265.434 117.054 266.551 117.615L269.171 119.12C268.847 119.696 268.549 120.266 268.157 120.811L264.566 118.755C264.064 118.498 263.507 118.364 262.943 118.364C262.378 118.364 261.821 118.498 261.319 118.755L227.552 138.157C227.245 138.313 226.906 138.394 226.562 138.394C226.218 138.394 225.879 138.313 225.573 138.157C225.461 138.109 225.366 138.029 225.299 137.927C225.232 137.826 225.197 137.707 225.198 137.585C225.198 137.464 225.235 137.345 225.303 137.244C225.371 137.143 225.467 137.065 225.579 137.018Z" fill="#5793CE"/>
<path d="M225.175 137.631L225.168 90.3664L260.559 70.7349L265.506 70.4067L270.291 73.4908L273.228 76.0361L238.751 130.453L227.496 137.061L225.175 137.631Z" fill="#5793CE"/>
<path d="M238.26 143.594L227.682 137.519V91.8465L238.589 96.8876L238.26 143.594Z" fill="#79B1E0"/>
<path d="M274.895 76.4015V123.585L237.749 144.734L237.252 144.536V97.2839L274.895 76.4015Z" fill="#D4ECFF"/>
<path d="M261.368 72.5742C261.854 72.3673 262.38 72.2678 262.909 72.2828C263.437 72.2978 263.956 72.4268 264.43 72.6609L271.274 76.5996C271.487 76.6924 271.663 76.8525 271.776 77.0551C271.888 77.2577 271.931 77.4916 271.896 77.7205L253.23 88.8182L238.247 97.9713L227.632 91.8466L261.368 72.5742Z" fill="white"/>
<path d="M238.589 96.547V145.328C238.264 145.33 237.944 145.251 237.656 145.099C237.546 145.049 237.451 144.971 237.38 144.874C237.31 144.776 237.265 144.662 237.252 144.542V97.2839L238.589 96.547Z" fill="#5793CE"/>
<path d="M225.168 90.9548V90.3664H225.361L225.417 90.769L225.168 90.9548Z" fill="white"/>
<path d="M237.252 97.897V97.2963L237.432 97.5502L237.252 97.897Z" fill="white"/>
<path d="M239.635 97.8475L273.408 78.4389C275.393 77.2994 275.393 75.4416 273.408 74.3021L266.564 70.3634C265.447 69.8017 264.213 69.509 262.961 69.509C261.71 69.509 260.476 69.8017 259.359 70.3634L225.592 89.7657C225.479 89.8133 225.384 89.8927 225.316 89.994C225.249 90.0953 225.213 90.2141 225.213 90.3355C225.213 90.4569 225.249 90.5757 225.316 90.677C225.384 90.7783 225.479 90.8577 225.592 90.9052C225.899 91.0579 226.238 91.1373 226.581 91.1373C226.924 91.1373 227.263 91.0579 227.57 90.9052L261.337 71.4967C261.841 71.2431 262.397 71.1109 262.961 71.1109C263.525 71.1109 264.082 71.2431 264.585 71.4967L271.411 75.4477C272.307 75.9618 272.307 76.804 271.411 77.3056L237.637 96.708C237.525 96.7556 237.43 96.835 237.362 96.9363C237.295 97.0376 237.259 97.1563 237.259 97.2777C237.259 97.3992 237.295 97.5179 237.362 97.6192C237.43 97.7205 237.525 97.7999 237.637 97.8475C237.947 98.0032 238.289 98.0843 238.636 98.0843C238.983 98.0843 239.325 98.0032 239.635 97.8475Z" fill="#D4ECFF"/>
<path d="M248.439 120.216L265.985 110.128V92.6207L248.439 102.709V120.216Z" fill="white"/>
<path d="M225.579 90.93C225.886 91.0827 226.225 91.1621 226.568 91.1621C226.912 91.1621 227.251 91.0827 227.558 90.93L261.325 71.5214C261.828 71.2679 262.385 71.1357 262.949 71.1357C263.513 71.1357 264.069 71.2679 264.573 71.5214L271.411 75.4477C271.996 75.7883 272.195 76.259 272.033 76.6863C271.902 76.416 271.682 76.1977 271.411 76.067L264.566 72.1283C264.063 71.8748 263.507 71.7426 262.943 71.7426C262.378 71.7426 261.822 71.8748 261.319 72.1283L227.558 91.5493C227.251 91.7048 226.912 91.7859 226.568 91.7859C226.225 91.7859 225.886 91.7048 225.579 91.5493C225.169 91.314 225.069 90.93 225.281 90.6699C225.361 90.7764 225.462 90.865 225.579 90.93Z" fill="white"/>
<path d="M237.656 97.8475C237.963 98.0001 238.302 98.0796 238.645 98.0796C238.989 98.0796 239.328 98.0001 239.635 97.8475L273.408 78.4389C273.765 78.2688 274.08 78.0232 274.331 77.7195C274.583 77.4157 274.764 77.061 274.864 76.6801C275.02 77.5286 274.534 78.4141 273.408 79.0644L239.635 98.4668C239.328 98.6223 238.989 98.7033 238.645 98.7033C238.302 98.7033 237.963 98.6223 237.656 98.4668C237.245 98.2314 237.146 97.8784 237.357 97.5874C237.439 97.6923 237.541 97.7805 237.656 97.8475Z" fill="white"/>
<path d="M241.931 102.628C243.916 103.768 243.916 105.626 241.931 106.771L208.157 126.174C207.852 126.329 207.514 126.41 207.171 126.41C206.828 126.41 206.49 126.329 206.185 126.174C206.073 126.126 205.977 126.047 205.91 125.946C205.843 125.844 205.807 125.726 205.807 125.604C205.807 125.483 205.843 125.364 205.91 125.263C205.977 125.161 206.073 125.082 206.185 125.034L239.952 105.632C240.848 105.118 240.848 104.282 239.952 103.774L236.679 101.916C237.04 101.371 237.37 100.801 237.693 100.226L241.931 102.628Z" fill="#D4ECFF"/>
<path d="M194.102 118.092L227.856 98.6897C228.973 98.128 230.207 97.8354 231.459 97.8354C232.71 97.8354 233.944 98.128 235.062 98.6897L237.681 100.195C237.357 100.771 237.028 101.34 236.667 101.885L233.083 99.8292C232.58 99.5727 232.024 99.4389 231.459 99.4389C230.894 99.4389 230.338 99.5727 229.835 99.8292L196.08 119.232C195.774 119.387 195.435 119.468 195.091 119.468C194.747 119.468 194.408 119.387 194.102 119.232C193.99 119.184 193.894 119.105 193.827 119.003C193.759 118.902 193.723 118.783 193.723 118.662C193.723 118.54 193.759 118.422 193.827 118.32C193.894 118.219 193.99 118.14 194.102 118.092Z" fill="#5793CE"/>
<path d="M193.697 118.705L193.691 71.4409L229.082 51.8094L234.029 51.4812L238.813 54.5653L241.75 57.1105L207.274 111.528L196.018 118.135L193.697 118.705Z" fill="#5793CE"/>
<path d="M206.782 124.669L196.205 118.594V72.921L207.112 77.9621L206.782 124.669Z" fill="#79B1E0"/>
<path d="M243.418 57.4759V104.66L206.272 125.808L205.774 125.61V78.3584L243.418 57.4759Z" fill="#D4ECFF"/>
<path d="M229.903 53.6487C230.39 53.4418 230.915 53.3423 231.444 53.3573C231.972 53.3723 232.491 53.5013 232.965 53.7354L239.809 57.6741C240.023 57.7651 240.201 57.9249 240.314 58.128C240.427 58.3311 240.468 58.5659 240.431 58.795L221.765 69.8927L206.782 79.0458L196.168 72.921L229.903 53.6487Z" fill="white"/>
<path d="M207.112 77.6214V126.403C206.789 126.405 206.47 126.326 206.185 126.174C206.074 126.124 205.978 126.047 205.906 125.949C205.834 125.851 205.788 125.737 205.774 125.616V78.3584L207.112 77.6214Z" fill="#5793CE"/>
<path d="M193.691 72.0293V71.4409H193.884L193.94 71.8435L193.691 72.0293Z" fill="white"/>
<path d="M205.774 78.9715V78.3708L205.955 78.6247L205.774 78.9715Z" fill="white"/>
<path d="M208.157 78.922L241.931 59.5134C243.916 58.3739 243.916 56.516 241.931 55.3765L235.086 51.4379C233.969 50.8761 232.735 50.5835 231.484 50.5835C230.232 50.5835 228.998 50.8761 227.881 51.4379L194.114 70.8402C194.002 70.8878 193.906 70.9672 193.839 71.0685C193.772 71.1698 193.736 71.2885 193.736 71.41C193.736 71.5314 193.772 71.6501 193.839 71.7514C193.906 71.8527 194.002 71.9321 194.114 71.9797C194.421 72.1352 194.76 72.2163 195.104 72.2163C195.448 72.2163 195.787 72.1352 196.093 71.9797L229.847 52.5712C230.351 52.3176 230.907 52.1854 231.471 52.1854C232.036 52.1854 232.592 52.3176 233.095 52.5712L239.94 56.5098C240.836 57.0238 240.836 57.8661 239.94 58.3677L206.173 77.7701C206.06 77.8177 205.965 77.8971 205.897 77.9984C205.83 78.0997 205.794 78.2184 205.794 78.3398C205.794 78.4613 205.83 78.58 205.897 78.6813C205.965 78.7826 206.06 78.862 206.173 78.9096C206.479 79.0661 206.819 79.1488 207.164 79.1509C207.508 79.1531 207.849 79.0746 208.157 78.922Z" fill="#D4ECFF"/>
<path d="M216.962 101.291L234.508 91.2087V73.6951L216.962 83.7834V101.291Z" fill="white"/>
<path d="M194.102 71.9797C194.408 72.1352 194.747 72.2163 195.091 72.2163C195.435 72.2163 195.774 72.1352 196.08 71.9797L229.847 52.5712C230.351 52.3176 230.907 52.1854 231.471 52.1854C232.036 52.1854 232.592 52.3176 233.095 52.5712L239.94 56.5098C240.525 56.8504 240.724 57.3211 240.562 57.7484C240.429 57.4795 240.21 57.2618 239.94 57.1291L233.095 53.1904C232.592 52.9369 232.036 52.8047 231.471 52.8047C230.907 52.8047 230.351 52.9369 229.847 53.1904L196.08 72.599C195.774 72.7545 195.435 72.8356 195.091 72.8356C194.747 72.8356 194.408 72.7545 194.102 72.599C193.691 72.3637 193.592 72.0169 193.803 71.7196C193.883 71.8261 193.985 71.9147 194.102 71.9797Z" fill="white"/>
<path d="M206.185 78.922C206.491 79.0745 206.829 79.154 207.171 79.154C207.514 79.154 207.851 79.0745 208.157 78.922L241.931 59.5134C242.292 59.3461 242.612 59.1019 242.868 58.798C243.124 58.494 243.309 58.1379 243.412 57.7546C243.567 58.6092 243.082 59.4886 241.956 60.1389L208.182 79.5413C207.877 79.6967 207.539 79.7778 207.196 79.7778C206.853 79.7778 206.515 79.6967 206.21 79.5413C205.793 79.3059 205.693 78.922 205.905 78.6619C205.981 78.7657 206.076 78.854 206.185 78.922Z" fill="white"/>
<path d="M257.455 111.775C259.44 112.915 259.44 114.773 257.455 115.918L223.688 135.321C223.381 135.476 223.042 135.557 222.698 135.557C222.354 135.557 222.015 135.476 221.709 135.321C221.599 135.272 221.505 135.193 221.439 135.092C221.373 134.992 221.338 134.874 221.338 134.754C221.338 134.634 221.373 134.516 221.439 134.416C221.505 134.315 221.599 134.236 221.709 134.187L255.476 114.779C256.372 114.265 256.372 113.429 255.476 112.921L252.203 111.063C252.564 110.518 252.894 109.955 253.217 109.372L257.455 111.775Z" fill="#FF2C9C"/>
<path d="M209.626 127.245L243.412 107.837C244.529 107.275 245.763 106.982 247.014 106.982C248.266 106.982 249.5 107.275 250.617 107.837L253.236 109.342C252.913 109.924 252.583 110.487 252.222 111.032L248.644 108.976C248.14 108.722 247.582 108.59 247.017 108.59C246.452 108.59 245.895 108.722 245.39 108.976L211.623 128.378C211.317 128.534 210.978 128.615 210.634 128.615C210.29 128.615 209.951 128.534 209.645 128.378C209.533 128.332 209.438 128.254 209.37 128.155C209.303 128.055 209.266 127.938 209.264 127.818C209.262 127.698 209.295 127.58 209.359 127.478C209.424 127.376 209.516 127.295 209.626 127.245Z" fill="#D3008D"/>
<path d="M209.221 127.852V80.5879L244.606 60.9563L249.553 60.6281L254.337 63.7184L257.274 66.2575L222.798 120.681L211.542 127.282L209.221 127.852Z" fill="#D3008D"/>
<path d="M222.306 133.822L211.729 127.741V82.068L222.636 87.109L222.306 133.822Z" fill="#E573B5"/>
<path d="M258.942 66.6228V113.807L221.796 134.962L221.298 134.763V87.5053L258.942 66.6228Z" fill="#FF2C9C"/>
<path d="M245.434 62.7956C245.919 62.5881 246.444 62.4889 246.972 62.5049C247.499 62.521 248.017 62.6519 248.489 62.8885L255.333 66.821C255.862 67.1307 256.08 67.5456 255.955 67.9419L237.289 79.0396L222.306 88.1927L211.692 82.068L245.434 62.7956Z" fill="white"/>
<path d="M222.636 86.7684V135.556C222.313 135.552 221.995 135.472 221.709 135.321C221.597 135.272 221.5 135.195 221.428 135.097C221.356 134.999 221.311 134.884 221.298 134.763V87.5115L222.636 86.7684Z" fill="#D3008D"/>
<path d="M209.221 81.1762V80.5879L209.408 80.5878L209.464 80.9904L209.221 81.1762Z" fill="white"/>
<path d="M221.298 88.1184V87.5177L221.485 87.7716L221.298 88.1184Z" fill="white"/>
<path d="M223.688 88.0689L257.455 68.6665C259.44 67.5208 259.44 65.6629 257.455 64.5235L250.61 60.5848C249.494 60.0241 248.261 59.732 247.011 59.732C245.761 59.732 244.528 60.0241 243.412 60.5848L209.626 79.9933C209.515 80.0418 209.422 80.1211 209.356 80.2218C209.29 80.3224 209.255 80.4399 209.255 80.56C209.255 80.6801 209.29 80.7976 209.356 80.8982C209.422 80.9988 209.515 81.0782 209.626 81.1266C209.932 81.2821 210.271 81.3632 210.615 81.3632C210.959 81.3632 211.298 81.2821 211.604 81.1266L245.371 61.7243C245.876 61.4706 246.433 61.3385 246.999 61.3385C247.564 61.3385 248.121 61.4706 248.626 61.7243L255.47 65.6629C256.366 66.177 256.366 67.013 255.47 67.5208L221.703 86.9232C221.591 86.9708 221.495 87.0502 221.428 87.1515C221.36 87.2528 221.324 87.3715 221.324 87.4929C221.324 87.6144 221.36 87.7331 221.428 87.8344C221.495 87.9357 221.591 88.0151 221.703 88.0627C222.009 88.2202 222.349 88.3029 222.694 88.3039C223.04 88.305 223.38 88.2244 223.688 88.0689Z" fill="#FF2C9C"/>
<path d="M232.486 110.438L250.032 100.356V82.8483L232.486 92.9303V110.438Z" fill="white"/>
<path d="M209.626 81.1266C209.932 81.2821 210.271 81.3632 210.615 81.3632C210.959 81.3632 211.298 81.2821 211.604 81.1266L245.371 61.7243C245.876 61.4706 246.433 61.3385 246.999 61.3385C247.564 61.3385 248.121 61.4706 248.626 61.7243L255.47 65.6629C256.055 65.9974 256.254 66.4742 256.092 66.9015C255.96 66.6315 255.741 66.4133 255.47 66.2822L248.626 62.3436C248.121 62.0899 247.564 61.9578 246.999 61.9578C246.433 61.9578 245.876 62.0899 245.371 62.3436L211.604 81.7521C211.297 81.9048 210.959 81.9842 210.615 81.9842C210.272 81.9842 209.933 81.9048 209.626 81.7521C209.215 81.5106 209.116 81.1328 209.327 80.8727C209.408 80.9772 209.51 81.0637 209.626 81.1266Z" fill="white"/>
<path d="M221.709 88.0689C222.015 88.2244 222.354 88.3055 222.698 88.3055C223.042 88.3055 223.381 88.2244 223.688 88.0689L257.455 68.6665C257.81 68.4946 258.124 68.2486 258.375 67.9451C258.627 67.6416 258.809 67.2878 258.911 66.9077C259.066 67.7562 258.581 68.6355 257.455 69.2858L223.688 88.6882C223.381 88.8437 223.042 88.9247 222.698 88.9247C222.354 88.9247 222.015 88.8437 221.709 88.6882C221.292 88.4528 221.193 88.1061 221.41 87.8088C221.486 87.9196 221.589 88.0091 221.709 88.0689Z" fill="white"/>
<path d="M273.408 121.554C275.393 122.693 275.393 124.551 273.408 125.691L239.635 145.099C239.328 145.255 238.989 145.336 238.645 145.336C238.302 145.336 237.963 145.255 237.656 145.099C237.544 145.052 237.448 144.972 237.381 144.871C237.314 144.77 237.278 144.651 237.278 144.53C237.278 144.408 237.314 144.289 237.381 144.188C237.448 144.087 237.544 144.007 237.656 143.96L271.411 124.557C272.307 124.043 272.307 123.207 271.411 122.7L268.138 120.842C268.499 120.297 268.829 119.727 269.152 119.151L273.408 121.554Z" fill="#D4ECFF"/>
<path d="M225.579 137.018L259.346 117.615C260.463 117.054 261.697 116.761 262.949 116.761C264.2 116.761 265.434 117.054 266.551 117.615L269.171 119.12C268.847 119.696 268.549 120.266 268.157 120.811L264.566 118.755C264.064 118.498 263.507 118.364 262.943 118.364C262.378 118.364 261.821 118.498 261.319 118.755L227.552 138.157C227.245 138.313 226.906 138.394 226.562 138.394C226.218 138.394 225.879 138.313 225.573 138.157C225.461 138.109 225.366 138.029 225.299 137.927C225.232 137.826 225.197 137.707 225.198 137.585C225.198 137.464 225.235 137.345 225.303 137.244C225.371 137.143 225.467 137.065 225.579 137.018Z" fill="#5793CE"/>
<path d="M225.175 137.631L225.168 90.3664L260.559 70.7349L265.506 70.4067L270.291 73.4908L273.228 76.0361L238.751 130.453L227.496 137.061L225.175 137.631Z" fill="#5793CE"/>
<path d="M238.26 143.594L227.682 137.519V91.8465L238.589 96.8876L238.26 143.594Z" fill="#79B1E0"/>
<path d="M274.895 76.4015V123.585L237.749 144.734L237.252 144.536V97.2839L274.895 76.4015Z" fill="#D4ECFF"/>
<path d="M261.368 72.5742C261.854 72.3673 262.38 72.2678 262.909 72.2828C263.437 72.2978 263.956 72.4268 264.43 72.6609L271.274 76.5996C271.487 76.6924 271.663 76.8525 271.776 77.0551C271.888 77.2577 271.931 77.4916 271.896 77.7205L253.23 88.8182L238.247 97.9713L227.632 91.8466L261.368 72.5742Z" fill="white"/>
<path d="M238.589 96.547V145.328C238.264 145.33 237.944 145.251 237.656 145.099C237.546 145.049 237.451 144.971 237.38 144.874C237.31 144.776 237.265 144.662 237.252 144.542V97.2839L238.589 96.547Z" fill="#5793CE"/>
<path d="M225.168 90.9548V90.3664H225.361L225.417 90.769L225.168 90.9548Z" fill="white"/>
<path d="M237.252 97.897V97.2963L237.432 97.5502L237.252 97.897Z" fill="white"/>
<path d="M239.635 97.8475L273.408 78.4389C275.393 77.2994 275.393 75.4416 273.408 74.3021L266.564 70.3634C265.447 69.8017 264.213 69.509 262.961 69.509C261.71 69.509 260.476 69.8017 259.359 70.3634L225.592 89.7657C225.479 89.8133 225.384 89.8927 225.316 89.994C225.249 90.0953 225.213 90.2141 225.213 90.3355C225.213 90.4569 225.249 90.5757 225.316 90.677C225.384 90.7783 225.479 90.8577 225.592 90.9052C225.899 91.0579 226.238 91.1373 226.581 91.1373C226.924 91.1373 227.263 91.0579 227.57 90.9052L261.337 71.4967C261.841 71.2431 262.397 71.1109 262.961 71.1109C263.525 71.1109 264.082 71.2431 264.585 71.4967L271.411 75.4477C272.307 75.9618 272.307 76.804 271.411 77.3056L237.637 96.708C237.525 96.7556 237.43 96.835 237.362 96.9363C237.295 97.0376 237.259 97.1563 237.259 97.2777C237.259 97.3992 237.295 97.5179 237.362 97.6192C237.43 97.7205 237.525 97.7999 237.637 97.8475C237.947 98.0032 238.289 98.0843 238.636 98.0843C238.983 98.0843 239.325 98.0032 239.635 97.8475Z" fill="#D4ECFF"/>
<path d="M248.439 120.216L265.985 110.128V92.6207L248.439 102.709V120.216Z" fill="white"/>
<path d="M225.579 90.93C225.886 91.0827 226.225 91.1621 226.568 91.1621C226.912 91.1621 227.251 91.0827 227.558 90.93L261.325 71.5214C261.828 71.2679 262.385 71.1357 262.949 71.1357C263.513 71.1357 264.069 71.2679 264.573 71.5214L271.411 75.4477C271.996 75.7883 272.195 76.259 272.033 76.6863C271.902 76.416 271.682 76.1977 271.411 76.067L264.566 72.1283C264.063 71.8748 263.507 71.7426 262.943 71.7426C262.378 71.7426 261.822 71.8748 261.319 72.1283L227.558 91.5493C227.251 91.7048 226.912 91.7859 226.568 91.7859C226.225 91.7859 225.886 91.7048 225.579 91.5493C225.169 91.314 225.069 90.93 225.281 90.6699C225.361 90.7764 225.462 90.865 225.579 90.93Z" fill="white"/>
<path d="M237.656 97.8475C237.963 98.0001 238.302 98.0796 238.645 98.0796C238.989 98.0796 239.328 98.0001 239.635 97.8475L273.408 78.4389C273.765 78.2688 274.08 78.0232 274.331 77.7195C274.583 77.4157 274.764 77.061 274.864 76.6801C275.02 77.5286 274.534 78.4141 273.408 79.0644L239.635 98.4668C239.328 98.6223 238.989 98.7033 238.645 98.7033C238.302 98.7033 237.963 98.6223 237.656 98.4668C237.245 98.2314 237.146 97.8784 237.357 97.5874C237.439 97.6923 237.541 97.7805 237.656 97.8475Z" fill="white"/>
<path d="M287.824 197.448C287.074 197.069 286.245 196.872 285.404 196.872C284.563 196.872 283.734 197.069 282.984 197.448L220.614 233.286C219.282 234.054 219.282 235.299 220.614 236.067C221.363 236.446 222.191 236.643 223.031 236.643C223.871 236.643 224.699 236.446 225.448 236.067L287.824 200.21C289.156 199.442 289.156 198.204 287.824 197.448Z" fill="#173D7A"/>
<path d="M298.483 178.009C298.452 177.96 298.407 177.922 298.353 177.899C298.3 177.877 298.241 177.872 298.184 177.885L294.432 178.696L295.919 181.21L298.47 178.331C298.504 178.284 298.523 178.229 298.525 178.171C298.528 178.114 298.513 178.057 298.483 178.009Z" fill="#D4ECFF"/>
<path d="M296.996 179.866C296.978 179.571 296.889 179.285 296.738 179.031C296.586 178.777 296.376 178.562 296.125 178.405C296.043 178.348 295.949 178.312 295.851 178.299C295.752 178.286 295.652 178.297 295.558 178.331C291.201 178.298 286.916 179.441 283.158 181.638L282.884 181.799L287.588 189.732L288.969 188.821C291.893 186.883 294.357 184.332 296.187 181.347L296.778 180.38C296.852 180.318 296.91 180.238 296.948 180.149C296.986 180.06 297.002 179.963 296.996 179.866Z" fill="#5793CE"/>
<path d="M288.509 187.62C288.44 186.491 288.104 185.395 287.529 184.42C286.954 183.445 286.155 182.619 285.199 182.009C283.382 180.987 281.926 181.836 281.938 183.91C282.01 185.039 282.348 186.135 282.924 187.109C283.5 188.084 284.299 188.91 285.255 189.521C287.072 190.549 288.528 189.694 288.509 187.62Z" fill="#D4ECFF"/>
<path d="M259.757 206.979L287.569 189.731L282.884 181.799L254.219 197.603L259.757 206.979Z" fill="#D4ECFF"/>
<path d="M260.871 204.483C260.788 203.148 260.389 201.852 259.708 200.7C259.027 199.547 258.082 198.571 256.951 197.85C254.81 196.643 253.087 197.646 253.105 200.098C253.187 201.433 253.584 202.73 254.264 203.884C254.944 205.037 255.888 206.015 257.019 206.737C259.166 207.939 260.889 206.935 260.871 204.483Z" fill="#D4ECFF"/>
<path d="M259.284 205.412C259.201 204.078 258.803 202.781 258.122 201.629C257.44 200.476 256.496 199.5 255.364 198.78C253.224 197.572 251.5 198.575 251.519 201.028C251.602 202.361 251.999 203.657 252.679 204.809C253.359 205.962 254.302 206.938 255.432 207.66C257.579 208.868 259.303 207.864 259.284 205.412Z" fill="#D4ECFF"/>
<path d="M252.639 198.515L215.843 220.045L221.38 229.42L258.176 207.89L252.639 198.515Z" fill="#D4ECFF"/>
<path d="M222.487 226.938C222.404 225.604 222.006 224.309 221.326 223.156C220.646 222.004 219.703 221.027 218.573 220.306C216.426 219.067 214.703 220.101 214.722 222.554C214.805 223.888 215.203 225.185 215.884 226.337C216.565 227.49 217.51 228.466 218.641 229.186C220.782 230.394 222.505 229.391 222.487 226.938Z" fill="#D4ECFF"/>
<path d="M221.099 226.152C220.988 225.327 220.692 224.537 220.233 223.84C219.774 223.144 219.165 222.558 218.449 222.127C217.074 221.347 216.028 221.892 216.115 223.365C216.226 224.19 216.521 224.98 216.979 225.677C217.437 226.373 218.045 226.959 218.76 227.391C220.135 228.146 221.18 227.601 221.099 226.152Z" fill="#396CAA"/>
<path d="M261.151 204.316C261.066 202.982 260.667 201.688 259.986 200.536C259.305 199.385 258.361 198.41 257.231 197.689C256.896 197.468 256.521 197.317 256.126 197.243C255.732 197.17 255.327 197.176 254.935 197.262C255.632 196.538 256.801 196.451 258.046 197.182C259.176 197.904 260.12 198.88 260.801 200.032C261.482 201.185 261.881 202.48 261.966 203.814C261.966 205.276 261.343 206.223 260.41 206.49C260.933 205.889 261.199 205.109 261.151 204.316Z" fill="white"/>
<path d="M261.151 204.316C261.066 202.982 260.667 201.688 259.986 200.536C259.305 199.385 258.361 198.41 257.231 197.689C256.16 197.07 255.196 197.033 254.499 197.442L252.415 198.681L253.404 200.359C253.549 201.55 253.939 202.7 254.55 203.734C255.162 204.769 255.981 205.667 256.957 206.372L257.952 208.057L260.037 206.818C260.734 206.409 261.157 205.542 261.151 204.316Z" fill="#5793CE"/>
<path d="M259.06 205.536C258.978 204.202 258.581 202.907 257.901 201.756C257.221 200.604 256.277 199.629 255.146 198.909C253.006 197.671 251.282 198.705 251.301 201.157C251.387 202.493 251.788 203.789 252.471 204.941C253.154 206.094 254.1 207.07 255.233 207.79C257.361 208.998 259.085 207.976 259.06 205.536Z" fill="#D4ECFF"/>
<path d="M219.363 227.242L216.974 223.198L209.19 227.756C208.923 227.912 208.689 228.119 208.502 228.365C208.315 228.611 208.179 228.891 208.101 229.19C208.023 229.489 208.005 229.799 208.048 230.105C208.09 230.41 208.193 230.704 208.35 230.97C208.668 231.506 209.186 231.895 209.791 232.052C210.397 232.209 211.04 232.12 211.58 231.806L219.363 227.242Z" fill="#FF2C9C"/>
<path d="M219.842 226.165C219.807 225.589 219.636 225.03 219.343 224.533C219.05 224.036 218.643 223.615 218.156 223.303C217.229 222.783 216.489 223.217 216.495 224.276C216.531 224.851 216.704 225.41 216.998 225.908C217.292 226.405 217.699 226.826 218.187 227.137C219.108 227.657 219.855 227.224 219.842 226.165Z" fill="#FF2C9C"/>
<path d="M228.51 211.884L227.346 211.221C226.945 211.043 226.503 210.973 226.066 211.02C225.629 211.067 225.212 211.228 224.857 211.487L220.85 213.835C220.452 214.098 220.122 214.451 219.886 214.866C219.651 215.28 219.516 215.743 219.494 216.219V218.219C219.479 218.589 219.338 218.942 219.096 219.222L219.245 220.145L218.243 219.575C218.162 219.524 218.097 219.451 218.055 219.364C218.013 219.278 217.997 219.182 218.007 219.086V217.092C218.057 216.103 218.339 215.14 218.83 214.28C219.322 213.419 220.01 212.686 220.838 212.138L224.845 209.797C226.189 209.01 227.452 208.88 228.404 209.419L229.574 210.076C229.975 210.254 230.417 210.323 230.854 210.276C231.291 210.23 231.708 210.068 232.063 209.809L248.24 200.359C248.315 200.302 248.404 200.268 248.497 200.259C248.591 200.25 248.685 200.268 248.769 200.309L249.77 200.873L248.918 201.201C248.801 201.56 248.567 201.869 248.252 202.08L232.075 211.531C230.731 212.311 229.468 212.423 228.51 211.884Z" fill="#5793CE"/>
<path d="M228.354 211.797C227.953 211.618 227.511 211.549 227.074 211.596C226.637 211.642 226.22 211.804 225.865 212.063L221.858 214.41C221.458 214.673 221.127 215.027 220.891 215.443C220.655 215.858 220.522 216.324 220.502 216.801V218.795C220.491 219.054 220.419 219.306 220.29 219.531C220.161 219.757 219.98 219.948 219.762 220.089C219.351 220.33 219.015 220.139 219.015 219.668V217.668C219.065 216.678 219.348 215.714 219.84 214.854C220.333 213.993 221.022 213.26 221.852 212.713L225.859 210.366C227.197 209.58 228.46 209.45 229.418 209.988L230.588 210.645C231.26 211.029 232.15 210.93 233.077 210.378L249.254 200.928C249.665 200.687 250.001 200.879 250.007 201.355C249.995 201.613 249.923 201.865 249.795 202.09C249.668 202.315 249.489 202.507 249.273 202.65L233.095 212.1C231.758 212.88 230.495 213.017 229.536 212.478L228.354 211.797Z" fill="#5793CE"/>
<path d="M220.434 217.129V219.123C220.434 219.123 220.434 219.123 220.434 219.166C220.47 219.046 220.488 218.921 220.49 218.795V216.794C220.484 216.737 220.484 216.679 220.49 216.621C220.45 216.787 220.431 216.958 220.434 217.129Z" fill="white"/>
<path d="M206.44 185.223C213.447 185.223 219.127 181.96 219.127 177.934C219.127 173.908 213.447 170.645 206.44 170.645C199.433 170.645 193.753 173.908 193.753 177.934C193.753 181.96 199.433 185.223 206.44 185.223Z" fill="#173D7A"/>
<path d="M220.869 171.698V167.666H220.104C219.251 166.31 218.056 165.199 216.638 164.446C211.007 161.207 201.867 161.207 196.23 164.446C194.813 165.199 193.62 166.31 192.77 167.666H192.005V171.679C192.005 173.809 193.405 175.94 196.236 177.562C201.867 180.801 211.007 180.801 216.638 177.562C219.457 175.946 220.869 173.822 220.869 171.698Z" fill="#FF2C9C"/>
<path d="M206.44 175.959C214.409 175.959 220.869 172.246 220.869 167.666C220.869 163.086 214.409 159.374 206.44 159.374C198.471 159.374 192.011 163.087 192.011 167.666C192.011 172.246 198.471 175.959 206.44 175.959Z" fill="#FF2C9C"/>
<path d="M216.657 173.531C211.026 176.77 201.886 176.77 196.255 173.531C193.548 171.977 192.161 169.964 192.049 167.958C191.924 170.162 193.293 172.398 196.255 174.082C201.886 177.321 211.026 177.321 216.657 174.082C219.594 172.398 221.012 170.162 220.863 167.958C220.732 169.964 219.338 171.977 216.657 173.531Z" fill="white"/>
<path d="M199.484 170.41C199.377 170.366 199.284 170.294 199.216 170.201C199.148 170.108 199.107 169.998 199.098 169.883V164.483C199.098 164.068 199.683 163.734 200.399 163.734C201.114 163.734 201.693 164.068 201.693 164.483V168.961L214.759 167.369C215.462 167.282 216.147 167.543 216.296 167.945C216.445 168.348 215.997 168.744 215.294 168.831L200.666 170.614C200.296 170.665 199.92 170.614 199.577 170.466L199.484 170.41Z" fill="white"/>
<path d="M131.856 125.796L121.136 119.634L131.856 113.472L142.577 119.634L131.856 125.796Z" fill="#173D7A"/>
<path d="M142.577 111.812L131.856 117.974V105.65L142.577 99.4946V111.812Z" fill="#D3008D"/>
<path d="M131.856 105.65L121.136 99.4949L131.856 93.333L142.577 99.4946L131.856 105.65Z" fill="#FF2C9C"/>
<path d="M131.856 117.974L121.136 111.812V99.4949L131.856 105.65V117.974Z" fill="#FF2C9C"/>
<path d="M127.999 111.317L125 109.595V106.146L127.999 107.868V111.317Z" fill="white"/>
<path d="M65.1623 236.259L54 229.843L65.1623 223.434L76.3247 229.843L65.1623 236.259Z" fill="#173D7A"/>
<path d="M76.3247 221.706L65.1624 228.115V215.29L76.3247 208.874V221.706Z" fill="#173D7A"/>
<path d="M65.1624 215.29L54 208.874L65.1623 202.464L76.3247 208.874L65.1624 215.29Z" fill="#D4ECFF"/>
<path d="M65.1624 228.115L54 221.706V208.874L65.1624 215.29V228.115Z" fill="#5793CE"/>
<path d="M61.1429 221.185L58.0194 219.396V215.804L61.1429 217.6V221.185Z" fill="white"/>
<path d="M105.755 221.291L64.1606 197.392C63.9474 197.27 63.7703 197.094 63.6471 196.882C63.524 196.67 63.4591 196.429 63.4591 196.185C63.4591 195.94 63.524 195.699 63.6471 195.487C63.7703 195.275 63.9474 195.099 64.1606 194.977L103.708 172.249L147.959 197.677C148.172 197.8 148.349 197.977 148.472 198.189C148.595 198.402 148.66 198.643 148.66 198.888C148.66 199.133 148.595 199.374 148.472 199.586C148.349 199.799 148.172 199.975 147.959 200.099L111.069 221.291C110.261 221.756 109.345 222.001 108.412 222.001C107.479 222.001 106.562 221.756 105.755 221.291Z" fill="#173D7A"/>
<path d="M104.554 155.677C104.554 153.051 102.687 151.961 100.41 153.293L61.51 175.587C61.1782 175.802 60.9018 176.092 60.7029 176.433C60.5041 176.774 60.3884 177.157 60.3651 177.55C60.3651 178.275 60.8753 178.566 61.5037 178.207L100.404 155.912C101.437 155.293 102.271 155.801 102.271 156.984V161.319C103.03 161.269 103.783 161.269 104.548 161.282L104.554 155.677Z" fill="#FF2C9C"/>
<path d="M61.4913 186.003L100.392 171.896C101.599 171.113 102.605 170.058 103.327 168.817C104.049 167.575 104.468 166.182 104.548 164.749L104.548 161.282C103.783 161.282 103.03 161.282 102.271 161.319V166.056C102.233 166.7 102.044 167.327 101.72 167.886C101.396 168.445 100.945 168.921 100.404 169.276L61.4913 183.384C61.16 183.599 60.8843 183.889 60.6864 184.23C60.4886 184.571 60.3743 184.954 60.3527 185.347C60.3527 186.071 60.8629 186.362 61.4913 186.003Z" fill="#D3008D"/>
<path d="M60.6514 186.053L107.97 213.308L148.034 189.527L151.213 184.802L150.883 186.48L150.031 182.096L75.6589 184.92L62.5553 184.084L60.6514 186.053Z" fill="#D3008D"/>
<path d="M62.2194 177.829L62.2069 183.625L107.939 209.964L109.177 204.44L62.2194 177.829Z" fill="#E573B5"/>
<path d="M150.622 180.232L103.378 153.026L60.7821 177.687L60.6949 178.287L108.007 205.536L150.622 180.232Z" fill="#FF2C9C"/>
<path d="M135.559 194.203L146.671 187.645C147.16 187.282 147.563 186.816 147.851 186.281C148.139 185.746 148.306 185.154 148.339 184.548V183.675C148.378 183.408 148.325 183.136 148.19 182.902C148.054 182.668 147.844 182.487 147.592 182.387L125.728 194.5L107.92 204.08V209.945L135.559 194.203Z" fill="white"/>
<path d="M109.519 204.638L62.574 177.631L61.5785 177.055L60.6701 176.535C60.4858 176.856 60.3812 177.217 60.3652 177.587C60.3511 177.726 60.3735 177.865 60.4303 177.993C60.487 178.12 60.5761 178.23 60.6887 178.312L107.976 205.561L109.519 204.638Z" fill="#D3008D"/>
<path d="M107.379 212.967L107.97 213.308L108.082 213.122L107.715 212.831L107.379 212.967Z" fill="white"/>
<path d="M107.398 205.183L108.001 205.53L107.852 205.202L107.398 205.183Z" fill="white"/>
<path d="M108.822 202.848L147.723 180.554C150.012 179.241 151.873 180.312 151.873 182.944V183.811C151.793 185.243 151.376 186.636 150.655 187.878C149.934 189.119 148.929 190.175 147.723 190.958L108.816 213.252C108.194 213.618 107.678 213.321 107.684 212.602C107.703 212.208 107.816 211.825 108.014 211.483C108.212 211.142 108.489 210.852 108.822 210.639L147.723 188.345C148.266 187.99 148.719 187.514 149.043 186.953C149.367 186.393 149.555 185.764 149.589 185.118V184.251C149.589 183.062 148.755 182.579 147.723 183.174L108.822 205.468C108.2 205.827 107.684 205.536 107.684 204.812C107.703 204.418 107.816 204.034 108.014 203.693C108.212 203.351 108.489 203.062 108.822 202.848Z" fill="#FF2C9C"/>
<path d="M107.671 212.596C107.691 212.202 107.804 211.819 108.002 211.477C108.2 211.136 108.477 210.846 108.81 210.633L147.71 188.338C148.254 187.984 148.706 187.508 149.031 186.947C149.355 186.387 149.542 185.758 149.577 185.112V184.245C149.577 183.471 149.222 183.006 148.681 182.926C148.875 183.208 148.971 183.545 148.955 183.886V184.753C148.92 185.399 148.733 186.027 148.409 186.588C148.084 187.148 147.632 187.625 147.088 187.979L108.188 210.274C107.854 210.486 107.575 210.776 107.376 211.117C107.177 211.459 107.063 211.842 107.043 212.237C107.043 212.782 107.335 213.079 107.752 213.036C107.696 212.896 107.669 212.746 107.671 212.596Z" fill="white"/>
<path d="M107.684 204.805C107.704 204.412 107.818 204.03 108.016 203.69C108.214 203.35 108.49 203.061 108.822 202.848L147.723 180.554C148.1 180.299 148.529 180.129 148.979 180.054C149.429 179.979 149.889 180.002 150.33 180.12C149.564 179.501 148.401 179.451 147.1 180.195L108.2 202.489C107.868 202.702 107.591 202.99 107.394 203.331C107.196 203.671 107.082 204.053 107.062 204.446C107.062 204.997 107.354 205.294 107.771 205.251C107.709 205.111 107.68 204.958 107.684 204.805Z" fill="white"/>
<path d="M89.6959 180.77L111.156 168.459L129.772 179.179L108.306 191.49L89.6959 180.77Z" fill="white"/>
<path d="M142.77 240.303C151.363 245.257 165.294 245.257 173.88 240.303C182.467 235.348 182.473 227.36 173.88 222.418C165.287 217.476 151.356 217.463 142.77 222.418C134.183 227.372 134.177 235.361 142.77 240.303ZM151.176 227.248C155.127 224.982 161.529 224.982 165.487 227.248C169.444 229.515 169.438 233.199 165.487 235.472C161.536 237.745 155.133 237.739 151.176 235.472C147.219 233.206 147.225 229.521 151.176 227.248Z" fill="#173D7A"/>
<path d="M177.134 219.495L169.282 219.619C168.599 218.77 167.753 218.064 166.793 217.544C162.475 215.067 155.687 214.869 150.989 216.962L146.323 212.596L139.142 212.707C139.497 212.478 139.864 212.249 140.244 212.026C150.199 206.291 166.376 206.291 176.388 212.026C178.051 212.959 179.565 214.134 180.88 215.513L177.134 219.495Z" fill="#B70083"/>
<path d="M139.155 201.362V212.707L146.335 212.596V201.25L139.155 201.362Z" fill="#D3008D"/>
<path d="M151.002 205.616V216.962L146.335 212.596V201.25L151.002 205.616Z" fill="#B70083"/>
<path d="M169.282 208.273L169.282 219.619L158.96 211.239L151.002 216.962V205.616L158.331 202.08C158.331 202.08 168.417 205.177 168.94 205.282C169.463 205.387 169.282 208.273 169.282 208.273Z" fill="#B70083"/>
<path d="M177.134 208.149L177.134 219.495L169.282 219.612L169.282 208.273L177.134 208.149Z" fill="#B70083"/>
<path d="M180.892 204.167V215.507L177.134 219.495L177.134 208.149L180.892 204.167Z" fill="#D3008D"/>
<path d="M177.134 208.149L169.282 208.273C168.599 207.424 167.753 206.719 166.793 206.198C162.475 203.721 155.687 203.523 150.989 205.616L146.323 201.25L139.142 201.362C139.497 201.133 139.864 200.903 140.244 200.687C150.199 194.952 166.376 194.952 176.388 200.687C178.052 201.616 179.567 202.789 180.88 204.167L177.134 208.149Z" fill="#FF2C9C"/>
<path d="M148.637 207.016V217.445L141.843 215.822C141.843 215.822 142.241 209.722 142.384 209.555C142.527 209.388 148.637 207.016 148.637 207.016Z" fill="#5793CE"/>
<path d="M153.777 217.445V228.784L153.042 229.564L148.251 226.815C148.251 226.815 148.998 218.145 149.085 217.984C149.172 217.823 153.777 217.445 153.777 217.445Z" fill="#173D7A"/>
<path d="M144.531 214.516L148.637 218.355C145.215 221.055 145.62 224.852 149.851 227.285C151.081 227.969 152.403 228.474 153.777 228.784L149.533 233.286L153.266 236.81C148.695 236.355 144.262 234.99 140.231 232.797C131.651 227.843 130.456 220.306 136.629 214.633L144.531 214.516Z" fill="#396CAA"/>
<path d="M153.298 225.465V236.81L143.983 233.231L132.777 222.591L132.821 210.546L144.674 219.897L153.298 225.465Z" fill="#396CAA"/>
<path d="M144.531 203.17L148.637 207.016C145.215 209.71 145.62 213.506 149.851 215.94C151.082 216.623 152.403 217.13 153.777 217.445L149.533 221.941L153.266 225.465C148.695 225.013 144.261 223.648 140.231 221.452C131.651 216.498 130.456 208.961 136.629 203.294L144.531 203.17Z" fill="#D4ECFF"/>
<path d="M153.323 233.23L157.056 229.261C160.528 229.471 164.13 228.815 166.793 227.285C169.456 225.756 170.676 223.57 170.197 221.489L179.107 221.353L182.529 217.717C185.528 222.839 183.481 228.716 176.388 232.797C171.174 235.794 164.261 237.219 157.429 237.082L153.323 233.23Z" fill="#396CAA"/>
<path d="M157.442 225.737V237.083L183.879 222.504V211.153L180.021 212.707L157.442 225.737Z" fill="#396CAA"/>
<path d="M153.323 221.885V233.23L157.442 237.083V225.737L153.323 221.885Z" fill="#173D7A"/>
<path d="M153.323 221.885L157.056 217.916C160.528 218.126 164.13 217.47 166.793 215.94C169.456 214.41 170.676 212.224 170.197 210.144L179.107 210.007L182.529 206.372C185.528 211.494 183.481 217.371 176.388 221.452C171.174 224.449 164.261 225.874 157.429 225.743L153.323 221.885Z" fill="#5793CE"/>
<defs>
<linearGradient id="paint0_linear_4095_6138" x1="224.5" y1="-64" x2="224.5" y2="297" gradientUnits="userSpaceOnUse">
<stop stop-color="#88B4C2"/>
<stop offset="1" stop-color="#456283"/>
</linearGradient>
</defs>
</svg>
