<svg width="397" height="257" viewBox="0 0 397 257" fill="none" xmlns="http://www.w3.org/2000/svg">
<path fill-rule="evenodd" clip-rule="evenodd" d="M324.917 -55.8027C424.917 -59.2152 329.828 -82.273 405.544 -31.718C491.174 25.4554 528.89 127.153 489.198 209.015C452.698 284.295 533.364 274.711 437.516 306.077C351.27 334.301 266.951 384.549 179.342 358.951C85.5134 331.535 30.9984 256.785 9.72316 181.082C-11.2506 106.452 -1.32265 21.5448 69.5499 -31.7197C134.204 -80.3107 234.783 -52.727 324.917 -55.8027Z" fill="url(#paint0_linear_4095_4544)"/>
<path d="M42.0975 90.9265L93.2331 29.8837C98.0835 24.1045 107.423 25.7041 110.003 32.8249L137.299 107.645C139.879 114.766 133.842 121.99 126.36 120.7L47.9283 106.922C40.4979 105.581 37.2471 96.7057 42.0975 90.9265Z" fill="#545172"/>
<path d="M100.973 35.1471C101.592 35.2503 101.747 35.6631 101.798 35.8695L129.095 110.69C129.146 110.844 129.301 111.257 128.888 111.773C128.476 112.238 128.011 112.186 127.856 112.134L49.4243 98.3571C49.2695 98.3055 48.8051 98.2539 48.5987 97.6347C48.3923 97.0671 48.7019 96.7059 48.8051 96.5511L99.9407 35.5083C100.044 35.3535 100.354 35.0439 100.973 35.1471Z" fill="#FFC672"/>
<path d="M95.503 84.683L89.2078 83.5993C87.5566 83.2897 86.473 81.7933 86.6794 80.1421L89.311 60.431C89.827 56.4578 93.5938 53.7229 97.567 54.3937C101.54 55.0645 104.12 58.9346 103.243 62.8562L99.0118 82.3093C98.7022 83.9089 97.1026 84.9925 95.503 84.683Z" fill="#545172"/>
<path d="M96.8454 94.1259C96.2778 97.4798 93.0786 99.6986 89.7246 99.131C86.3706 98.5634 84.1518 95.3642 84.7194 92.0102C85.287 88.6562 88.4862 86.4374 91.8402 87.005C95.1942 87.5726 97.413 90.7719 96.8454 94.1259Z" fill="#545172"/>
<path d="M354.122 150.266L227.083 139.121C225.69 139.018 224.658 137.779 224.761 136.334L232.501 48.0469C232.604 46.6537 233.843 45.6217 235.287 45.7249L362.327 56.8705C363.72 56.9737 364.752 58.2121 364.649 59.6569L356.909 147.944C356.805 149.338 355.567 150.37 354.122 150.266Z" fill="#E7E6E9"/>
<path d="M364.545 60.895C364.752 58.7794 363.152 56.9218 361.036 56.7154L236.629 45.7762C234.513 45.5698 232.656 47.1694 232.449 49.285L231.778 56.6122L363.926 68.2222L364.545 60.895Z" fill="#545172"/>
<path d="M344.834 60.9467C344.679 62.6495 343.183 63.8879 341.48 63.7331C339.777 63.5783 338.539 62.0819 338.694 60.3791C338.849 58.6763 340.345 57.4379 342.048 57.5927C343.751 57.7475 344.989 59.2439 344.834 60.9467Z" fill="#FFFDFF"/>
<path d="M353.348 61.6693C353.193 63.3721 351.697 64.6105 349.994 64.4557C348.291 64.3009 347.053 62.8045 347.207 61.1017C347.362 59.3989 348.859 58.1605 350.561 58.3153C352.213 58.4701 353.503 60.0181 353.348 61.6693Z" fill="#FFFDFF"/>
<path d="M361.811 62.4432C361.656 64.146 360.159 65.3844 358.457 65.2296C356.754 65.0748 355.515 63.5784 355.67 61.8756C355.825 60.1728 357.321 58.9344 359.024 59.0892C360.727 59.244 361.965 60.7404 361.811 62.4432Z" fill="#FFFDFF"/>
<path d="M239.474 76.3191L235.886 117.134L305.435 123.249L309.024 82.4341L239.474 76.3191Z" fill="#F7C4A5"/>
<path d="M318.464 83.3395L318.176 86.6294L347.784 89.2214L348.072 85.9315L318.464 83.3395Z" fill="#898192"/>
<path d="M317.843 90.8273L317.555 94.1172L347.163 96.7092L347.451 93.4193L317.843 90.8273Z" fill="#898192"/>
<path d="M317.172 98.3581L316.884 101.648L346.492 104.24L346.78 100.95L317.172 98.3581Z" fill="#898192"/>
<path d="M316.505 105.842L316.217 109.131L345.825 111.723L346.113 108.434L316.505 105.842Z" fill="#898192"/>
<path d="M315.835 113.322L315.547 116.612L345.156 119.204L345.444 115.914L315.835 113.322Z" fill="#898192"/>
<path d="M315.21 120.857L314.922 124.146L344.531 126.738L344.819 123.449L315.21 120.857Z" fill="#898192"/>
<path d="M314.131 132.567L313.843 135.857L343.451 138.449L343.739 135.159L314.131 132.567Z" fill="#898192"/>
<path d="M313.51 140.054L313.222 143.344L342.83 145.936L343.118 142.646L313.51 140.054Z" fill="#898192"/>
<path d="M275.067 129.114L274.779 132.404L304.388 134.996L304.676 131.706L275.067 129.114Z" fill="#898192"/>
<path d="M274.395 136.645L274.107 139.935L303.716 142.527L304.004 139.237L274.395 136.645Z" fill="#898192"/>
<path d="M235.541 125.654L235.253 128.944L264.862 131.536L265.15 128.247L235.541 125.654Z" fill="#898192"/>
<path d="M234.873 133.138L234.585 136.428L264.194 139.02L264.482 135.73L234.873 133.138Z" fill="#898192"/>
<path d="M247.414 67.913C247.672 68.2742 247.775 68.7386 247.723 69.3062C247.672 70.0286 247.311 70.5962 246.691 70.9574C246.072 71.3186 245.195 71.4218 244.111 71.3186L239.674 70.9574L240.396 62.4434L244.576 62.8046C245.608 62.9078 246.382 63.1658 246.898 63.6302C247.414 64.0946 247.672 64.6622 247.569 65.333C247.517 65.7458 247.414 66.107 247.156 66.4166C246.949 66.7262 246.64 66.9326 246.279 67.0874C246.795 67.2422 247.156 67.5518 247.414 67.913ZM245.247 69.6674C245.505 69.5126 245.659 69.2546 245.711 68.8934C245.763 68.171 245.298 67.8098 244.215 67.7066L241.944 67.5002L241.738 69.6158L244.06 69.8222C244.576 69.8738 244.989 69.8222 245.247 69.6674ZM242.254 64.043L242.099 66.0554L244.06 66.2102C244.524 66.2618 244.937 66.2102 245.195 66.0554C245.453 65.9006 245.608 65.6426 245.659 65.333C245.711 65.0234 245.608 64.7138 245.35 64.559C245.092 64.3526 244.731 64.2494 244.266 64.1978L242.254 64.043Z" fill="#898192"/>
<path d="M254.432 72.2474L252.987 69.719H252.884L251.181 69.5642L250.974 71.9378L249.014 71.783L249.736 63.269L253.451 63.5786C254.225 63.6302 254.844 63.8366 255.412 64.1462C255.928 64.4558 256.341 64.817 256.599 65.333C256.857 65.7974 256.96 66.365 256.908 67.0358C256.857 67.7066 256.65 68.2226 256.289 68.6354C255.928 69.0482 255.464 69.3578 254.896 69.5642L256.547 72.4538L254.432 72.2474ZM254.483 65.6426C254.174 65.3846 253.761 65.1782 253.142 65.1266L251.542 64.9718L251.284 67.9646L252.884 68.1194C253.503 68.171 253.916 68.0678 254.277 67.8614C254.586 67.6034 254.793 67.2938 254.844 66.8294C254.896 66.3134 254.793 65.9522 254.483 65.6426Z" fill="#898192"/>
<path d="M264.7 71.525L264.545 73.1246L257.94 72.557L258.663 64.043L265.113 64.6106L264.958 66.2102L260.469 65.7974L260.314 67.655L264.287 68.0162L264.132 69.5642L260.159 69.203L260.004 71.1638L264.7 71.525Z" fill="#898192"/>
<path d="M271.924 71.9377L267.951 71.5765L267.022 73.3309L265.01 73.1761L269.551 64.9717L271.511 65.1265L274.556 74.0017L272.492 73.7953L271.924 71.9377ZM271.408 70.3381L270.325 66.9325L268.673 70.0801L271.408 70.3381Z" fill="#898192"/>
<path d="M278.89 71.0088L277.652 72.0924L277.445 74.2596L275.484 74.1048L276.207 65.5908L278.168 65.7456L277.806 69.7188L281.934 66.0552L284.153 66.2616L280.283 69.7704L283.637 74.8272L281.315 74.6208L278.89 71.0088Z" fill="#898192"/>
<path d="M285.237 66.3135L287.198 66.4683L286.475 74.9823L284.515 74.8275L285.237 66.3135Z" fill="#898192"/>
<path d="M297.053 67.3454L296.331 75.8594L294.731 75.7046L290.913 70.1318L290.448 75.2918L288.487 75.137L289.21 66.623L290.861 66.7778L294.628 72.3506L295.092 67.1906L297.053 67.3454Z" fill="#898192"/>
<path d="M304.483 72.1959L306.289 72.3507L305.98 75.8079C305.464 76.1175 304.948 76.3239 304.277 76.4787C303.658 76.6335 303.038 76.6335 302.419 76.5819C301.542 76.4787 300.768 76.2207 300.097 75.8079C299.426 75.3435 298.91 74.7759 298.549 74.1051C298.188 73.4343 298.085 72.6087 298.136 71.7831C298.188 70.9575 298.498 70.1835 298.962 69.5643C299.426 68.9451 300.046 68.4291 300.768 68.1195C301.542 67.8099 302.316 67.7067 303.245 67.7583C303.967 67.8099 304.638 68.0163 305.257 68.3259C305.876 68.6355 306.341 69.0483 306.702 69.5643L305.309 70.6479C304.741 69.9771 304.07 69.5643 303.193 69.5127C302.626 69.4611 302.161 69.5127 301.697 69.7191C301.232 69.9255 300.871 70.1835 300.613 70.5963C300.355 71.0091 300.2 71.4735 300.149 71.9895C300.097 72.5055 300.2 73.0215 300.355 73.4343C300.562 73.8471 300.871 74.2083 301.232 74.4663C301.645 74.7243 302.11 74.8791 302.626 74.9307C303.193 74.9823 303.709 74.8791 304.174 74.7243L304.483 72.1959Z" fill="#898192"/>
<path d="M319.757 69.3577L319.035 77.8717L317.435 77.7169L313.617 72.1441L313.152 77.3041L311.191 77.1493L311.914 68.6353L313.565 68.7901L317.332 74.3629L317.796 69.2029L319.757 69.3577Z" fill="#898192"/>
<path d="M327.806 77.046L327.652 78.6456L321.047 78.078L321.769 69.564L328.219 70.1316L328.064 71.7312L323.575 71.3184L323.42 73.176L327.394 73.5372L327.239 75.0852L323.266 74.724L323.111 76.6848L327.806 77.046Z" fill="#898192"/>
<path d="M342.771 71.3704L339.21 79.678L337.095 79.4716L335.701 73.5376L333.276 79.162L331.161 78.9556L329.097 70.1836L331.161 70.3384L332.554 76.5304L335.082 70.6996L336.888 70.8544L338.333 77.098L340.861 71.2156L342.771 71.3704Z" fill="#898192"/>
<path d="M343.957 79.9355C343.338 79.6775 342.874 79.4195 342.513 79.1099L343.338 77.6651C343.699 77.9747 344.112 78.2327 344.577 78.4391C345.041 78.6455 345.557 78.7487 346.073 78.8003C346.641 78.8519 347.053 78.8003 347.363 78.6455C347.621 78.4907 347.776 78.2843 347.827 78.0263C347.827 77.8199 347.776 77.6651 347.621 77.5103C347.466 77.3555 347.26 77.2523 347.053 77.1491C346.795 77.0459 346.486 76.9427 346.073 76.7879C345.454 76.5815 344.938 76.3751 344.525 76.1687C344.112 75.9623 343.803 75.7043 343.545 75.3431C343.287 74.9819 343.183 74.5175 343.235 73.9499C343.287 73.4339 343.441 73.0211 343.751 72.6599C344.061 72.2987 344.473 71.9891 345.041 71.8343C345.609 71.6279 346.279 71.5763 347.053 71.6795C347.621 71.7311 348.137 71.8343 348.653 71.9891C349.169 72.1439 349.582 72.4019 349.995 72.6599L349.272 74.1047C348.498 73.5887 347.776 73.2791 346.95 73.2275C346.383 73.1759 345.97 73.2275 345.712 73.3823C345.454 73.5371 345.299 73.7435 345.247 74.0531C345.247 74.3627 345.351 74.5691 345.66 74.7239C345.97 74.8787 346.383 75.0851 347.002 75.2915C347.621 75.4979 348.137 75.7043 348.55 75.9107C348.963 76.1171 349.272 76.3751 349.53 76.7363C349.788 77.0975 349.891 77.5619 349.84 78.1295C349.788 78.5939 349.633 79.0583 349.324 79.4195C349.014 79.7807 348.601 80.0903 348.034 80.2451C347.466 80.4515 346.795 80.5031 346.021 80.3999C345.196 80.3483 344.577 80.1935 343.957 79.9355Z" fill="#898192"/>
<path d="M261.449 112.031C269.827 112.031 276.619 105.239 276.619 96.8603C276.619 88.482 269.827 81.6899 261.449 81.6899C253.07 81.6899 246.278 88.482 246.278 96.8603C246.278 105.239 253.07 112.031 261.449 112.031Z" fill="#E58C7E"/>
<path d="M264.706 100.003L263.906 109.102L297.37 112.044L298.17 102.945L264.706 100.003Z" fill="#81A6D9"/>
<path d="M268.105 98.8729L279.096 83.1865L287.197 100.576L268.105 98.8729Z" fill="#7BA859"/>
<path opacity="0.3" d="M126.36 120.7C133.791 121.99 139.879 114.766 137.299 107.645L134.771 100.679L94.6777 115.127L126.36 120.7Z" fill="#403867"/>
<path d="M93.6973 118.687L208.301 77.4071C210.52 76.6331 212.945 77.7167 213.822 79.8839L244.111 154.549C246.588 160.586 243.544 167.449 237.403 169.719L126.979 210.277C120.065 212.806 112.325 209.658 109.177 203.001L82.9129 147.325C81.7261 144.745 82.9129 141.701 85.5445 140.669L95.8129 136.489L91.0657 124.363C90.1885 122.093 91.3753 119.513 93.6973 118.687Z" fill="#FFFDFF"/>
<path d="M95.8646 136.541L85.5963 140.721C82.9647 141.804 81.7779 144.849 82.9647 147.377L109.229 203.053C110.416 205.53 112.222 207.543 114.389 208.936C125.638 206.923 119.085 190.876 119.085 190.876L95.8646 136.541Z" fill="#D0CDD3"/>
<path d="M147.795 137.561L110.561 152.571L125.571 189.806L162.805 174.795L147.795 137.561Z" fill="#81A6D9"/>
<path d="M157.483 161.605L120.249 176.615L125.593 189.872L162.828 174.862L157.483 161.605Z" fill="#BBDE95"/>
<path d="M126.618 169.204L153.295 151.298L157.475 161.567L128.269 173.332L126.618 169.204Z" fill="#3D5539"/>
<path d="M136.371 170.081L116.866 168.327L120.22 176.583L136.371 170.081Z" fill="#7BA859"/>
<path d="M130.85 156.355C131.882 158.884 130.643 161.773 128.115 162.805C125.587 163.837 122.697 162.599 121.665 160.071C120.633 157.542 121.871 154.653 124.4 153.621C126.928 152.589 129.818 153.827 130.85 156.355Z" fill="#FFC672"/>
<path d="M179.274 124.917L151.707 136.03L152.923 139.045L180.489 127.932L179.274 124.917Z" fill="#898192"/>
<path d="M182.006 131.727L154.439 142.84L155.655 145.855L183.222 134.743L182.006 131.727Z" fill="#898192"/>
<path d="M184.738 138.538L157.171 149.651L158.386 152.666L185.953 141.553L184.738 138.538Z" fill="#898192"/>
<path d="M187.528 145.346L159.961 156.458L161.176 159.474L188.743 148.361L187.528 145.346Z" fill="#898192"/>
<path d="M190.263 152.16L162.696 163.272L163.912 166.288L191.479 155.175L190.263 152.16Z" fill="#898192"/>
<path d="M192.996 158.97L165.429 170.083L166.644 173.098L194.211 161.985L192.996 158.97Z" fill="#898192"/>
<path d="M214.205 110.831L186.639 121.944L187.854 124.959L215.421 113.847L214.205 110.831Z" fill="#898192"/>
<path d="M216.938 117.642L189.371 128.755L190.587 131.77L218.153 120.657L216.938 117.642Z" fill="#898192"/>
<path d="M219.728 124.45L192.161 135.562L193.377 138.578L220.943 127.465L219.728 124.45Z" fill="#898192"/>
<path d="M222.46 131.26L194.894 142.373L196.109 145.388L223.676 134.275L222.46 131.26Z" fill="#898192"/>
<path d="M225.195 138.074L197.628 149.187L198.843 152.202L226.41 141.089L225.195 138.074Z" fill="#898192"/>
<path d="M227.927 144.884L200.36 155.997L201.576 159.012L229.143 147.899L227.927 144.884Z" fill="#898192"/>
<path d="M198.158 171.714L170.591 182.827L171.806 185.842L199.373 174.729L198.158 171.714Z" fill="#898192"/>
<path d="M156.978 188.335L129.411 199.448L130.627 202.463L158.193 191.35L156.978 188.335Z" fill="#898192"/>
<path d="M210.61 101.943L106.947 143.732L108.163 146.747L211.825 104.958L210.61 101.943Z" fill="#898192"/>
<path d="M233.09 157.629L205.523 168.742L206.739 171.757L234.306 160.644L233.09 157.629Z" fill="#898192"/>
<path d="M111.499 120.854L116.092 132.258L113.925 133.135L105.462 128.491L108.249 135.406L105.669 136.438L101.076 125.034L103.243 124.157L111.706 128.801L108.919 121.886L111.499 120.854Z" fill="#898192"/>
<path d="M126.773 125.498L127.65 127.614L118.827 131.174L114.234 119.771L122.852 116.313L123.729 118.429L117.743 120.854L118.724 123.331L124.038 121.215L124.864 123.279L119.549 125.395L120.633 128.027L126.773 125.498Z" fill="#898192"/>
<path d="M142.201 108.522L143.078 121.422L140.24 122.557L134.616 115.849L135.132 124.621L132.294 125.756L123.935 115.849L126.669 114.766L132.449 121.732L131.881 112.65L134.306 111.67L140.189 118.687L139.569 109.554L142.201 108.522Z" fill="#898192"/>
<path d="M149.322 118.687C148.393 118.79 147.568 118.739 146.897 118.532L147 116.21C147.619 116.365 148.342 116.417 149.064 116.365C149.838 116.313 150.561 116.159 151.231 115.901C152.005 115.591 152.47 115.281 152.779 114.92C153.037 114.559 153.089 114.198 152.934 113.837C152.831 113.579 152.625 113.372 152.367 113.269C152.109 113.166 151.747 113.166 151.386 113.166C151.025 113.166 150.509 113.269 149.89 113.372C148.961 113.527 148.135 113.579 147.516 113.63C146.897 113.63 146.278 113.527 145.71 113.217C145.143 112.908 144.678 112.392 144.369 111.618C144.111 110.947 144.059 110.276 144.162 109.605C144.317 108.935 144.678 108.264 145.246 107.696C145.865 107.077 146.639 106.561 147.723 106.148C148.445 105.839 149.219 105.632 149.941 105.529C150.715 105.426 151.438 105.426 152.057 105.529V107.851C150.767 107.696 149.58 107.799 148.548 108.212C147.826 108.522 147.31 108.831 147.052 109.244C146.794 109.657 146.742 110.018 146.897 110.379C147.052 110.792 147.361 110.999 147.877 110.999C148.393 110.999 149.064 110.947 149.993 110.792C150.922 110.637 151.747 110.586 152.367 110.534C152.986 110.483 153.605 110.637 154.173 110.947C154.74 111.257 155.205 111.773 155.514 112.495C155.772 113.166 155.824 113.837 155.669 114.507C155.514 115.178 155.153 115.849 154.534 116.468C153.915 117.087 153.089 117.603 152.057 118.016C151.18 118.377 150.251 118.584 149.322 118.687Z" fill="#898192"/>
<path d="M103.605 175.189L111.087 172.145L109.797 169.204L102.418 172.196L103.605 175.189Z" fill="#898192"/>
<path d="M106.34 181.949L113.977 178.904L112.687 175.912L105.153 178.956L106.34 181.949Z" fill="#898192"/>
<path d="M100.87 168.326L108.198 165.385L106.908 162.444L99.6836 165.333L100.87 168.326Z" fill="#898192"/>
<path d="M95.3489 154.704L102.418 151.866L101.128 148.873L94.1621 151.711L95.3489 154.704Z" fill="#898192"/>
<path d="M115.576 182.723L107.888 185.819L109.126 188.811L116.866 185.664L115.576 182.723Z" fill="#898192"/>
<path d="M98.1349 161.515L105.307 158.625L104.017 155.684L96.8965 158.522L98.1349 161.515Z" fill="#898192"/>
<path d="M379.097 156.716L360.728 151.814L365.63 170.184L369.448 166.366L377.446 174.312L383.225 168.533L375.227 160.586L379.097 156.716Z" fill="#FFFDFF"/>
<path d="M230.128 193.559C230.128 193.559 216.557 188.708 200.406 192.681C179.096 197.945 167.537 208.161 167.537 208.161L169.395 215.437L175.174 217.811C175.174 217.811 176.206 231.381 183.791 236.18C191.376 240.979 208.353 239.534 218.828 234.89C228.993 230.401 231.624 225.293 232.347 217.295C233.121 208.677 232.656 202.382 232.656 202.382C232.656 202.382 234.256 198.461 238.694 197.635C243.131 196.809 246.588 198.822 246.588 198.822C246.588 198.822 248.962 211.206 254.328 216.314C260.52 222.197 269.034 225.138 281.47 221.939C293.699 218.791 301.13 215.901 302.678 211.103C304.226 206.304 302.678 191.443 302.678 191.443L306.806 187.676L305.051 180.813C305.051 180.813 286.424 175.963 272.44 178.698C258.456 181.484 245.66 189.121 245.66 189.121C245.66 189.121 237.094 187.728 230.128 193.559Z" fill="#545172"/>
<path d="M179.354 210.38L182.708 225.138C182.708 225.138 185.494 232.93 195.505 232.517C205.515 232.104 218.931 229.782 223.627 222.661C227.342 217.088 225.794 205.788 224.968 201.144C224.762 199.906 223.73 198.977 222.491 198.822C215.99 198.1 195.711 196.81 180.489 207.388C179.56 208.058 179.096 209.245 179.354 210.38Z" fill="#CDDBF0"/>
<path d="M251.646 195.106C251.284 193.816 251.904 192.423 253.09 191.804C257.064 189.688 266.352 185.148 274.762 184.064C282.812 183.032 289.572 184.116 292.719 184.786C293.854 185.044 294.732 185.922 294.938 187.108C295.867 192.062 298.137 205.478 296.744 208.522C294.99 212.289 275.794 218.275 267.074 216.366C258.715 214.56 255.825 211.206 251.646 195.106Z" fill="#CDDBF0"/>
<g opacity="0.2">
<path opacity="0.2" d="M198.858 199.802L182.088 222.455L182.707 225.086C182.707 225.086 185.184 232.001 193.853 232.465L218.982 198.461C214.183 198.203 206.804 198.151 198.858 199.802Z" fill="#FFFDFF"/>
<path opacity="0.2" d="M226 212.857C226.103 208.317 225.432 203.724 224.968 201.144C224.864 200.525 224.555 200.009 224.142 199.596L199.993 232.207C204.586 231.795 209.488 230.917 213.719 229.369L226 212.857Z" fill="#FFFDFF"/>
</g>
<g opacity="0.2">
<path opacity="0.2" d="M274.762 184.064C271.253 184.529 267.59 185.561 264.236 186.799L253.451 201.402C256.031 209.555 258.456 213.064 262.584 214.973L285.65 183.806C282.502 183.6 278.787 183.6 274.762 184.064Z" fill="#FFFDFF"/>
<path opacity="0.2" d="M294.989 187.109C294.783 185.973 293.906 185.045 292.77 184.787C292.306 184.683 291.738 184.58 291.119 184.477L267.486 216.417C270.686 217.037 275.123 216.624 279.612 215.747L296.124 193.455C295.66 190.927 295.247 188.657 294.989 187.109Z" fill="#FFFDFF"/>
</g>
<path d="M211.603 200.886C211.603 200.886 218.879 200.525 219.653 204.291C220.479 208.058 215.628 209.039 210.417 208.574C205.257 208.058 202.883 207.181 202.212 204.807C201.593 202.434 205.927 200.834 211.603 200.886Z" fill="#FFFDFF"/>
<path d="M198.961 205.014C198.961 206.562 197.723 207.8 196.175 207.8C194.627 207.8 193.389 206.562 193.389 205.014C193.389 203.466 194.627 202.228 196.175 202.228C197.723 202.279 198.961 203.518 198.961 205.014Z" fill="#FFFDFF"/>
<path d="M284.669 186.902C284.669 186.902 291.944 186.541 292.718 190.308C293.544 194.075 288.694 195.055 283.482 194.591C278.27 194.126 275.948 193.198 275.278 190.824C274.71 188.45 279.044 186.902 284.669 186.902Z" fill="#FFFDFF"/>
<path d="M272.079 191.082C272.079 192.63 270.84 193.868 269.292 193.868C267.744 193.868 266.506 192.63 266.506 191.082C266.506 189.534 267.744 188.295 269.292 188.295C270.84 188.295 272.079 189.534 272.079 191.082Z" fill="#FFFDFF"/>
<path opacity="0.3" d="M336.526 145.725C335.339 145.261 334.153 144.951 333.017 144.848C332.966 144.848 332.914 144.848 332.863 144.848C332.501 144.797 332.14 144.797 331.779 144.797C331.727 144.797 331.676 144.797 331.624 144.797C331.263 144.797 330.902 144.797 330.541 144.797C330.489 144.797 330.489 144.797 330.437 144.797C330.334 144.797 330.231 144.797 330.128 144.797L331.366 141.804C334.153 135.147 320.014 122.867 299.735 114.353C297.362 113.321 294.988 112.443 292.666 111.618C291.789 107.696 290.86 104.291 288.796 103.826C286.165 103.207 285.649 107.129 285.597 109.451C285.184 109.347 284.72 109.244 284.307 109.089C283.636 107.799 282.862 105.942 282.759 103.723C282.553 99.3887 284.152 92.4743 280.127 90.5651C276.103 88.6559 275.432 93.5579 273.471 95.1575C271.459 96.7055 270.633 92.6291 270.014 88.2431C269.343 83.8571 268.775 78.0263 264.08 78.5423C259.384 79.0583 259.539 89.6879 260.519 99.3371C260.829 102.433 261.345 105.323 261.913 107.748C259.952 108.419 258.559 109.502 257.991 110.947L256.237 115.127C252.573 123.847 252.263 133.135 254.689 141.546L341.067 149.131C339.932 147.686 338.435 146.551 336.526 145.725Z" fill="#403867"/>
<path opacity="0.3" d="M252.573 105.581C254.654 105.581 256.34 103.895 256.34 101.814C256.34 99.7338 254.654 98.0474 252.573 98.0474C250.493 98.0474 248.807 99.7338 248.807 101.814C248.807 103.895 250.493 105.581 252.573 105.581Z" fill="#403867"/>
<path opacity="0.3" d="M300.562 108.832C302.265 108.832 303.658 107.438 303.658 105.736C303.658 104.033 302.265 102.64 300.562 102.64C298.859 102.64 297.466 104.033 297.466 105.736C297.466 107.438 298.859 108.832 300.562 108.832Z" fill="#403867"/>
<path opacity="0.3" d="M285.184 84.6831C286.474 84.6831 287.506 83.6511 287.506 82.3611C287.506 81.0711 286.474 80.0391 285.184 80.0391C283.894 80.0391 282.862 81.0711 282.862 82.3611C282.862 83.6511 283.894 84.6831 285.184 84.6831Z" fill="#403867"/>
<path opacity="0.3" d="M269.55 66.5713C272.285 66.5713 274.504 64.3525 274.504 61.6177C274.504 58.8829 272.285 56.6641 269.55 56.6641C266.815 56.6641 264.597 58.8829 264.597 61.6177C264.545 64.3525 266.815 66.5713 269.55 66.5713Z" fill="#403867"/>
<path d="M304.071 167.346L306.342 160.741C306.496 160.793 320.428 165.488 331.11 163.528C335.186 162.805 338.643 158.368 339.004 154.91C339.211 152.898 338.488 151.66 336.579 150.886C333.277 149.492 328.272 151.711 326.775 152.588L323.215 146.551C324.092 146.035 332.245 141.443 339.314 144.384C344.061 146.396 346.538 150.576 345.97 155.633C345.248 162.496 339.108 169.1 332.4 170.339C319.861 172.661 304.69 167.552 304.071 167.346Z" fill="#E58C7E"/>
<path d="M321.77 163.837C313.72 163.218 306.445 160.793 306.342 160.741L304.071 167.346C304.329 167.449 307.012 168.326 310.882 169.204C314.752 167.965 318.416 166.159 321.77 163.837Z" fill="#935771"/>
<path d="M323.163 146.551L326.723 152.588C327.859 151.918 330.903 150.524 333.793 150.421C334.463 149.234 335.031 147.996 335.599 146.706L336.837 143.713C330.49 142.423 323.989 146.087 323.163 146.551Z" fill="#935771"/>
<path d="M280.283 165.901C260.005 157.387 250.51 134.012 259.024 113.733L260.779 109.554L334.205 140.462L332.451 144.642C323.885 164.921 300.562 174.415 280.283 165.901Z" fill="#E58C7E"/>
<path opacity="0.2" d="M270.789 118.635L272.853 115.539L265.887 110.844L263.823 113.94C253.709 128.955 257.683 149.389 272.698 159.503C273.885 160.277 275.072 160.999 276.31 161.618C264.133 150.885 261.449 132.464 270.789 118.635Z" fill="#FFFDFF"/>
<path opacity="0.2" d="M319.654 143.713L321.047 140.256L328.839 143.352L327.446 146.809C320.738 163.631 301.646 171.887 284.772 165.179C283.431 164.663 282.193 164.043 280.954 163.373C296.795 167.397 313.462 159.245 319.654 143.713Z" fill="#FFFDFF"/>
<path d="M334.177 140.475C336.973 133.829 322.801 121.526 302.523 112.994C282.245 104.462 263.54 102.933 260.744 109.579C257.948 116.224 272.12 128.528 292.398 137.059C312.675 145.591 331.38 147.12 334.177 140.475Z" fill="#E7E6E9"/>
<path d="M327.851 137.814C329.807 133.164 317.786 123.671 301.002 116.609C284.217 109.547 269.025 107.591 267.069 112.24C265.113 116.889 277.134 126.383 293.918 133.445C310.702 140.507 325.894 142.463 327.851 137.814Z" fill="#CBCACB"/>
<g opacity="0.2">
<path opacity="0.2" d="M340.088 164.198C339.984 164.147 339.933 164.095 339.83 164.095C339.004 163.579 338.746 162.496 339.262 161.67C344.37 153.466 338.127 148.976 337.869 148.77C337.095 148.202 336.888 147.119 337.456 146.345C338.024 145.571 339.107 145.364 339.881 145.932C339.984 145.984 349.066 152.537 342.255 163.528C341.79 164.25 340.862 164.508 340.088 164.198Z" fill="#FFFDFF"/>
</g>
<path d="M267.229 114.92C269.241 119.977 279.922 127.562 293.906 133.445C304.69 137.985 314.855 140.411 321.202 140.307C321.151 140.256 321.099 140.256 320.996 140.204C315.113 137.934 302.678 129.059 297.931 119.151C295.196 113.475 295.196 103.259 291.481 102.381C287.765 101.504 288.333 109.605 288.333 109.605C288.333 109.605 285.701 106.613 285.495 102.278C285.289 97.9438 286.888 91.0294 282.863 89.1202C278.839 87.211 278.168 92.113 276.207 93.7126C274.195 95.2606 273.369 91.1842 272.75 86.7982C272.079 82.4122 271.511 76.5814 266.816 77.0974C262.12 77.6134 262.275 88.243 263.255 97.8922C264.287 107.645 267.229 114.92 267.229 114.92Z" fill="#6F4C61"/>
<path d="M255.309 104.239C257.389 104.239 259.076 102.553 259.076 100.472C259.076 98.392 257.389 96.7056 255.309 96.7056C253.228 96.7056 251.542 98.392 251.542 100.472C251.542 102.553 253.228 104.239 255.309 104.239Z" fill="#6F4C61"/>
<path d="M306.393 104.394C306.393 106.097 305 107.49 303.297 107.49C301.594 107.49 300.201 106.097 300.201 104.394C300.201 102.691 301.594 101.298 303.297 101.298C305 101.298 306.393 102.691 306.393 104.394Z" fill="#6F4C61"/>
<path d="M290.293 81.0193C290.293 82.3093 289.261 83.3413 287.971 83.3413C286.681 83.3413 285.649 82.3093 285.649 81.0193C285.649 79.7293 286.681 78.6973 287.971 78.6973C289.261 78.6973 290.293 79.7293 290.293 81.0193Z" fill="#6F4C61"/>
<path d="M264.493 41.2355C264.493 42.9383 263.1 44.3831 261.346 44.3831C259.591 44.3831 258.198 42.9899 258.198 41.2355C258.198 39.5327 259.591 38.0879 261.346 38.0879C263.1 38.0879 264.493 39.4811 264.493 41.2355Z" fill="#6F4C61"/>
<path d="M277.239 60.2759C277.239 63.0107 275.02 65.2295 272.286 65.2295C269.551 65.2295 267.332 63.0107 267.332 60.2759C267.332 57.5411 269.551 55.3223 272.286 55.3223C275.02 55.3223 277.239 57.5411 277.239 60.2759Z" fill="#6F4C61"/>
<path opacity="0.3" d="M265.32 94.6415C265.32 94.6415 264.288 88.8623 264.804 85.2503C265.371 81.6383 266.661 80.2451 267.693 81.9479C268.725 83.6507 267.9 90.3071 267.693 92.9903C267.487 95.6219 265.939 97.0667 265.32 94.6415Z" fill="#FFFDFF"/>
<path opacity="0.3" d="M266.971 101.607C267.683 101.607 268.261 101.03 268.261 100.317C268.261 99.6049 267.683 99.0273 266.971 99.0273C266.258 99.0273 265.681 99.6049 265.681 100.317C265.681 101.03 266.258 101.607 266.971 101.607Z" fill="#FFFDFF"/>
<path opacity="0.3" d="M275.949 97.273C276.052 97.1182 278.374 93.2998 279.716 93.9706C281.058 94.6414 280.284 97.273 277.858 99.079C275.433 100.833 275.072 98.563 275.949 97.273Z" fill="#FFFDFF"/>
<path opacity="0.3" d="M294.731 116.675C294.731 116.675 295.969 120.39 297.466 122.609C298.962 124.828 300.252 125.911 298.653 127.356C297.053 128.852 294.937 126.014 293.596 122.557C292.254 119.1 290.861 114.662 292.254 113.837C293.596 113.011 293.957 114.611 294.731 116.675Z" fill="#FFFDFF"/>
<path opacity="0.3" d="M292.925 109.554C292.925 109.554 293.596 107.129 292.719 106.355C291.893 105.581 291.274 106.045 290.964 107.8C290.706 109.606 292.306 111.205 292.925 109.554Z" fill="#FFFDFF"/>
<path opacity="0.3" d="M253.658 100.988C254.399 100.988 255 100.388 255 99.6468C255 98.9058 254.399 98.3052 253.658 98.3052C252.917 98.3052 252.316 98.9058 252.316 99.6468C252.316 100.388 252.917 100.988 253.658 100.988Z" fill="#FFFDFF"/>
<path opacity="0.3" d="M260.778 41.0292C261.32 41.0292 261.759 40.5902 261.759 40.0488C261.759 39.5073 261.32 39.0684 260.778 39.0684C260.237 39.0684 259.798 39.5073 259.798 40.0488C259.798 40.5902 260.237 41.0292 260.778 41.0292Z" fill="#FFFDFF"/>
<path opacity="0.3" d="M272.904 58.8828C272.904 59.9148 272.079 60.792 270.995 60.792C269.963 60.792 269.086 59.9664 269.086 58.8828C269.086 57.7992 269.912 56.9736 270.995 56.9736C272.079 57.0252 272.904 57.8508 272.904 58.8828Z" fill="#FFFDFF"/>
<path opacity="0.3" d="M288.127 80.245C288.127 80.7094 287.766 81.0706 287.301 81.0706C286.837 81.0706 286.476 80.7094 286.476 80.245C286.476 79.7806 286.837 79.4194 287.301 79.4194C287.766 79.4194 288.127 79.7806 288.127 80.245Z" fill="#FFFDFF"/>
<path opacity="0.3" d="M303.451 103.414C303.451 103.981 302.987 104.497 302.368 104.497C301.8 104.497 301.284 104.033 301.284 103.414C301.284 102.794 301.749 102.33 302.368 102.33C302.987 102.33 303.451 102.794 303.451 103.414Z" fill="#FFFDFF"/>
<path d="M197.62 28.9551H156.546C153.089 28.9551 150.303 31.7415 150.303 35.1987V55.6323C150.303 59.0895 153.089 61.8759 156.546 61.8759H160.468V69.5127L168.105 61.8759H197.672C201.129 61.8759 203.915 59.0895 203.915 55.6323V35.2503C203.864 31.7931 201.077 28.9551 197.62 28.9551Z" fill="#FFFDFF"/>
<path d="M167.589 45.4156C167.589 47.5312 165.886 49.234 163.771 49.234C161.655 49.234 159.952 47.5312 159.952 45.4156C159.952 43.3 161.655 41.5972 163.771 41.5972C165.886 41.5972 167.589 43.3 167.589 45.4156Z" fill="#545172"/>
<path d="M177.083 49.234C179.192 49.234 180.901 47.5244 180.901 45.4156C180.901 43.3067 179.192 41.5972 177.083 41.5972C174.974 41.5972 173.265 43.3067 173.265 45.4156C173.265 47.5244 174.974 49.234 177.083 49.234Z" fill="#545172"/>
<path d="M194.215 45.4156C194.215 47.5312 192.512 49.234 190.397 49.234C188.281 49.234 186.578 47.5312 186.578 45.4156C186.578 43.3 188.281 41.5972 190.397 41.5972C192.512 41.5972 194.215 43.3 194.215 45.4156Z" fill="#545172"/>
<defs>
<linearGradient id="paint0_linear_4095_4544" x1="252.5" y1="-0.999999" x2="252.5" y2="366" gradientUnits="userSpaceOnUse">
<stop stop-color="#88B4C2"/>
<stop offset="0.698435" stop-color="#456283"/>
</linearGradient>
</defs>
</svg>
