<svg width="102" height="102" viewBox="0 0 102 102" fill="none" xmlns="http://www.w3.org/2000/svg">
<g clip-path="url(#clip0_3995_3538)">
<path d="M12.4181 101.734C12.0906 102.111 11.649 101.968 11.2545 101.982C7.98929 101.982 4.72163 101.955 1.45892 102.007C0.414353 102.022 0 101.759 0 100.622C0.0248115 67.5531 0.0248115 34.4845 0 1.41673C0 0.307472 0.374633 0.0146484 1.43656 0.0146484C34.464 0.0361554 67.4897 0.0361554 100.514 0.0146484C101.655 0.0146484 102.002 0.34966 102.002 1.50359C101.974 34.5713 101.974 67.6399 102.002 100.709C102.002 101.608 101.866 102.032 100.804 102.02C95.9262 101.963 91.0482 101.997 86.1653 101.99C85.8031 101.99 85.421 102.089 85.1083 101.779C85.1977 100.948 85.0141 100.29 84.2598 99.749C80.7862 97.3021 77.2233 95.0563 73.174 93.6815C70.41 92.741 67.8718 91.267 65.1277 90.2843C61.989 89.1601 60.5301 86.6934 59.8205 83.6535C59.2324 81.1496 59.2597 78.6209 59.5004 76.0574C59.6121 74.8787 60.0239 74.1714 60.87 73.3724C63.0733 71.2878 65.351 69.1884 65.3088 65.7266C65.3088 64.9077 65.47 63.8282 66.2293 63.384C68.1174 62.2822 69.0404 60.5699 69.7029 58.6269C70.2413 57.056 69.951 55.4455 69.8964 53.8498C69.8737 53.7283 69.8222 53.6139 69.7462 53.5163C69.6703 53.4188 69.572 53.3408 69.4597 53.289C68.5417 52.9912 68.77 52.4105 68.9064 51.7132C69.8468 46.966 71.2015 42.2832 70.9881 37.3548C70.9608 36.7245 71.5315 36.253 71.3653 35.444C70.678 32.1287 68.8841 29.4883 66.6362 27.0886C65.5073 25.8875 64.3709 24.6864 62.8872 23.8923C62.7185 23.8005 62.3314 23.7707 62.5572 23.4183C62.6118 23.334 62.8648 23.3762 63.0261 23.3588C63.2544 23.6069 63.4876 23.8228 63.9069 23.7211C63.6588 23.3116 63.3437 23.3563 63.036 23.3464C62.7606 22.8004 62.2098 22.7136 61.7062 22.5473C57.2202 21.0584 52.64 20.0657 47.6653 19.835C48.3749 19.5475 49.1203 19.358 49.881 19.2716C49.2912 19.1116 48.6694 19.1116 48.0797 19.2716C45.9111 19.7481 43.8915 20.7432 41.6957 21.1179C41.7428 20.9244 41.8917 20.6539 41.8148 20.5521C41.6485 20.3263 41.4451 20.5248 41.3185 20.6837C40.398 21.8425 39.2741 22.9022 38.6315 24.2C37.9888 25.4979 37.2495 25.4408 36.1702 25.1927C35.0487 24.9445 33.9049 25.0587 32.7611 25.2746L34.7212 25.3713C32.0763 26.2846 30.533 28.4634 28.7243 30.2973C28.3223 30.7042 27.8038 31.2527 28.0072 31.9202C28.3943 33.1734 28.2776 34.3621 27.908 35.5929C27.707 36.2729 27.3794 36.9776 27.6425 37.7593C28.0891 37.5534 27.9079 37.0149 28.233 36.7096C28.5208 38.0373 28.233 39.3153 28.7987 40.6653C29.8358 43.1096 30.2526 45.8046 31.2128 48.3085C31.7091 49.5989 32.2053 50.8869 32.7263 52.2368C31.4113 52.0879 30.6322 52.6984 30.5727 53.8151C30.3717 57.6913 31.0516 61.3144 34.0463 64.1335C34.1662 64.2933 34.2361 64.4849 34.2473 64.6844C34.6889 67.3223 35.9618 69.5234 37.6365 71.5757C38.562 72.7073 39.8695 73.6329 39.7356 75.4594C39.6338 76.7672 39.5073 78.0824 39.4676 79.3951C39.3262 83.7925 37.6514 87.1922 33.5972 89.3462C31.7289 90.3389 29.6125 90.9915 28.1387 92.6691C28.0395 92.7402 27.9252 92.7876 27.8047 92.8074C27.6842 92.8272 27.5608 92.8189 27.444 92.7832C26.387 92.4333 25.722 93.0587 25.067 93.6915C24.5286 94.2101 24.0225 94.6841 23.2062 94.8082C20.9285 95.1606 18.6334 95.5328 17.1348 97.6124C16.9983 97.8009 16.7353 97.8977 16.5517 98.059C15.1739 99.2783 13.796 100.503 12.4181 101.734Z" fill="#BCC1CC"/>
<path d="M12.4182 101.735C13.7977 100.505 15.1772 99.2778 16.5567 98.0519C16.7403 97.8906 17.0033 97.8038 17.1398 97.6052C18.6285 95.5257 20.9335 95.1535 23.2111 94.8011C24.0274 94.677 24.5336 94.203 25.072 93.6844C25.727 93.0516 26.392 92.4262 27.449 92.7761C27.5657 92.8118 27.6892 92.8201 27.8097 92.8003C27.9302 92.7805 28.0444 92.7331 28.1437 92.662C29.6175 90.9844 31.7339 90.3293 33.6022 89.3391C37.6564 87.1851 39.3312 83.7854 39.4726 79.388C39.5123 78.0753 39.6388 76.7601 39.7406 75.4523C39.882 73.6258 38.567 72.7002 37.6415 71.5686C35.9667 69.5163 34.6939 67.3152 34.2523 64.6773C34.2411 64.4778 34.1712 64.2862 34.0513 64.1264C31.0491 61.3073 30.3693 57.6743 30.5777 53.808C30.6372 52.6913 31.4163 52.0709 32.7313 52.2297C32.2103 50.8798 31.7116 49.5918 31.2178 48.3014C30.2576 45.7975 29.8408 43.1025 28.8037 40.6582C28.233 39.3082 28.5258 38.0302 28.238 36.7025C27.9129 36.9979 28.0941 37.5463 27.6474 37.7523C27.3844 36.9706 27.712 36.2633 27.9129 35.5858C28.2826 34.3451 28.4091 33.1663 28.0122 31.9131C27.8087 31.2456 28.3273 30.6971 28.7292 30.2902C30.538 28.4563 32.0813 26.2775 34.7262 25.3643L32.7661 25.2675C33.9099 25.0516 35.0537 24.9424 36.1751 25.1856C37.2544 25.4337 38.0112 25.4486 38.6365 24.1929C39.2617 22.9373 40.403 21.8355 41.3235 20.6766C41.4476 20.5177 41.651 20.3192 41.8198 20.545C41.8967 20.6468 41.7478 20.9173 41.7007 21.1108C41.6808 21.1456 41.6635 21.1828 41.6461 21.22L41.7032 21.1133C43.899 20.7386 45.9211 19.7435 48.0871 19.267C48.6769 19.107 49.2987 19.107 49.8885 19.267C49.1278 19.3534 48.3824 19.5429 47.6728 19.8304C52.6351 20.0512 57.2277 21.0562 61.7136 22.5427C62.2099 22.709 62.7681 22.7909 63.0435 23.3418C62.8822 23.3591 62.6292 23.317 62.5746 23.4013C62.3488 23.7537 62.7359 23.7835 62.9046 23.8753C64.3933 24.6694 65.5247 25.8606 66.6536 27.0716C68.9065 29.4663 70.6954 32.1116 71.3827 35.427C71.5489 36.236 70.9782 36.7075 71.0055 37.3378C71.2189 42.2588 69.8642 46.9489 68.9238 51.6962C68.7874 52.3935 68.5591 52.9742 69.4771 53.272C69.5894 53.3238 69.6876 53.4018 69.7636 53.4993C69.8396 53.5969 69.8911 53.7113 69.9138 53.8328C69.9709 55.4285 70.2587 57.039 69.7203 58.6098C69.0578 60.5529 68.1348 62.2652 66.2467 63.367C65.4874 63.8112 65.3163 64.8907 65.3262 65.7096C65.3684 69.1714 63.0931 71.2708 60.8874 73.3553C60.0413 74.1544 59.6295 74.8617 59.5178 76.0404C59.2697 78.6039 59.2498 81.1326 59.8379 83.6365C60.5475 86.6764 62.0064 89.1431 65.145 90.2672C67.8892 91.2599 70.4274 92.724 73.1914 93.6645C77.2407 95.0393 80.811 97.2851 84.2772 99.7319C85.0215 100.263 85.2151 100.931 85.1257 101.762H13.8002C13.3263 101.759 12.8722 101.735 12.4182 101.735Z" fill="#F9F9F9"/>
</g>
<defs>
<clipPath id="clip0_3995_3538">
<path d="M0 51C0 22.8335 22.8335 0 51 0C79.1665 0 102 22.8335 102 51C102 79.1665 79.1665 102 51 102C22.8335 102 0 79.1665 0 51Z" fill="white"/>
</clipPath>
</defs>
</svg>
